<svg width="40" height="40" viewBox="0 0 40 40" fill="none" xmlns="http://www.w3.org/2000/svg">
    <path fill-rule="evenodd" clip-rule="evenodd"
        d="M29.3498 16.984H34.1665C35.0832 16.984 35.8332 17.734 35.8332 18.6507V27.384C35.8332 33.334 31.6832 36.6673 26.5498 36.6673H13.4498C8.3165 36.6673 4.1665 33.334 4.1665 27.384V12.6173C4.1665 6.66732 8.3165 3.33398 13.4498 3.33398H20.5165C21.4332 3.33398 22.1832 4.08398 22.1832 5.00065V9.81732C22.1832 13.7673 25.3998 16.984 29.3498 16.984ZM24.4665 4.41731C24.4665 3.46731 25.6498 3.00064 26.3332 3.68397C27.9986 5.34938 30.4997 7.87329 32.6875 10.0811C33.7401 11.1433 34.7202 12.1323 35.4998 12.9173C36.1665 13.584 35.6665 14.7006 34.7165 14.7006H34.7162C32.8329 14.7006 30.6331 14.7006 29.0498 14.684C26.5332 14.684 24.4665 12.6673 24.4665 10.234V4.41731Z"
        fill="#898993" />
</svg>