<svg width="40" height="40" viewBox="0 0 40 40" fill="none" xmlns="http://www.w3.org/2000/svg">
    <path fill-rule="evenodd" clip-rule="evenodd"
        d="M13.8165 10.484C13.1165 10.484 12.5665 9.91732 12.5665 9.23398V4.58398C12.5665 3.90065 13.1165 3.33398 13.8165 3.33398C14.5165 3.33398 15.0665 3.90065 15.0665 4.58398V9.21732C15.0665 9.91732 14.5165 10.484 13.8165 10.484ZM26.1832 10.484C25.4832 10.484 24.9332 9.91732 24.9332 9.23398V4.58398C24.9332 3.88398 25.4998 3.33398 26.1832 3.33398C26.8832 3.33398 27.4332 3.90065 27.4332 4.58398V9.21732C27.4332 9.91732 26.8832 10.484 26.1832 10.484ZM29.9332 8.85065C29.9332 7.46732 31.5165 6.68398 32.6165 7.50065C34.5665 8.98398 35.8332 11.3007 35.8332 13.9507V28.5507C35.8332 33.034 32.1998 36.6673 27.7165 36.6673H12.2832C7.79984 36.6673 4.1665 33.034 4.1665 28.5507V13.9507C4.1665 13.7173 4.18317 13.484 4.19984 13.2507C4.2165 13.0507 4.23317 12.8673 4.2665 12.684C4.29984 12.434 4.34984 12.184 4.4165 11.9507L4.41651 11.9506C4.48317 11.7006 4.54984 11.4506 4.64984 11.2007C4.65917 11.1773 4.66719 11.1553 4.675 11.1339C4.69511 11.0787 4.71383 11.0273 4.74984 10.9673C4.8165 10.7507 4.9165 10.5507 5.0165 10.3507C5.0165 10.3173 5.03317 10.3007 5.0665 10.2673C5.18317 10.034 5.3165 9.78398 5.4665 9.56732C5.48317 9.53398 5.49984 9.51732 5.5165 9.50065C5.64984 9.28398 5.79984 9.06732 5.98317 8.86732C6.33317 8.41732 6.74984 8.00065 7.2165 7.63398C7.2415 7.60898 7.27067 7.58815 7.29984 7.56732C7.329 7.54648 7.35817 7.52565 7.38317 7.50065C7.44984 7.45065 7.49984 7.41732 7.5665 7.38398C7.57484 7.37565 7.58317 7.37148 7.5915 7.36732C7.59984 7.36315 7.60817 7.35898 7.6165 7.35065C8.69984 6.80065 10.0665 7.56732 10.0665 8.85065V9.01732C10.0665 10.3673 10.7332 11.634 11.7832 12.3673C11.9332 12.4673 12.0998 12.5507 12.2665 12.634C12.4332 12.7173 12.5998 12.784 12.7665 12.834C12.9665 12.9007 13.1832 12.9507 13.4165 12.9673C13.6832 13.0007 13.9498 13.0007 14.2165 12.9673C14.4498 12.9507 14.6665 12.9007 14.8665 12.834C15.0498 12.784 15.2165 12.7173 15.3665 12.634C15.5332 12.5507 15.6998 12.4673 15.8498 12.3673C16.8832 11.7173 17.5665 10.5507 17.5665 9.23398V7.50065C17.5665 6.58398 18.3165 5.83398 19.2332 5.83398H20.7665C21.6832 5.83398 22.4332 6.58398 22.4332 7.50065V9.23398C22.4332 11.434 24.3332 13.2007 26.5832 12.9673C28.5332 12.7673 29.9332 10.9673 29.9332 9.01732V8.85065ZM17.1832 27.084H19.9998C20.6832 27.084 21.2498 26.5173 21.2498 25.834C21.2498 25.1507 20.6832 24.584 19.9998 24.584H17.1832V21.6673C17.1832 20.984 16.6165 20.4173 15.9332 20.4173C15.2332 20.4173 14.6832 20.984 14.6832 21.6673V24.584H11.6665C10.9832 24.584 10.4165 25.1507 10.4165 25.834C10.4165 26.5173 10.9832 27.084 11.6665 27.084H14.6832V30.0007C14.6832 30.684 15.2332 31.2507 15.9332 31.2507C16.6165 31.2507 17.1832 30.684 17.1832 30.0007V27.084Z"
        fill="#898993" />
</svg>