<svg width="16" height="16" viewBox="0 0 16 16" fill="none" xmlns="http://www.w3.org/2000/svg">
<path fill-rule="evenodd" clip-rule="evenodd" d="M11.4393 3.50004L4.75001 3.50017C4.3358 3.50018 4.00001 3.1644 4 2.75018C3.99999 2.33597 4.33577 2.00018 4.74999 2.00017L13.25 2C13.4489 2 13.6397 2.07901 13.7803 2.21966C13.921 2.36032 14 2.55109 14 2.75V11.25C14 11.6642 13.6642 12 13.25 12C12.8358 12 12.5 11.6642 12.5 11.25V4.56066L4.28033 12.7803C3.98744 13.0732 3.51256 13.0732 3.21967 12.7803C2.92678 12.4874 2.92678 12.0126 3.21967 11.7197L11.4393 3.50004Z" fill="#AAABAD"/>
</svg>
