<svg width="24" height="25" viewBox="0 0 24 25" fill="none" xmlns="http://www.w3.org/2000/svg">
<path d="M8.29004 6.7878C7.87004 6.7878 7.54004 6.4478 7.54004 6.0378V3.2478C7.54004 2.8378 7.87004 2.4978 8.29004 2.4978C8.71004 2.4978 9.04004 2.8378 9.04004 3.2478V6.0278C9.04004 6.4478 8.71004 6.7878 8.29004 6.7878Z" fill="#898993"/>
<path d="M15.71 6.7878C15.29 6.7878 14.96 6.4478 14.96 6.0378V3.2478C14.96 2.8278 15.3 2.4978 15.71 2.4978C16.13 2.4978 16.46 2.8378 16.46 3.2478V6.0278C16.46 6.4478 16.13 6.7878 15.71 6.7878Z" fill="#898993"/>
<path d="M6.65398 8.54184L6.64056 8.53268C5.80599 7.94981 5.29 6.95828 5.29 5.9078V5.8078C5.29 5.70996 5.24463 5.63782 5.16776 5.59134C5.09083 5.54482 5.00438 5.53816 4.93138 5.56673C4.9288 5.5682 4.92607 5.56974 4.9232 5.57133L4.92127 5.57252C4.9149 5.5764 4.90581 5.58183 4.89471 5.58809L4.88658 5.59473C4.87761 5.60198 4.86481 5.61217 4.84967 5.62352L4.84967 5.62352L4.83087 5.63737L4.82283 5.64315C4.81322 5.65153 4.8034 5.65966 4.79337 5.66754C4.55938 5.85139 4.35304 6.05836 4.18201 6.27826C4.16959 6.29423 4.15653 6.30968 4.14287 6.3246C4.0814 6.39165 4.02336 6.47157 3.9621 6.56937L3.34948 6.18558L3.9621 6.56937C3.93975 6.60504 3.9187 6.63322 3.90667 6.6489L3.9028 6.65502C3.89935 6.66039 3.89504 6.66698 3.89003 6.67436L3.89003 6.67437C3.83623 6.7537 3.78055 6.85478 3.72075 6.97343C3.70589 7.00291 3.69049 7.02897 3.67669 7.05052C3.67317 7.05816 3.66938 7.0661 3.66532 7.07426C3.63177 7.14157 3.6085 7.19005 3.59015 7.23458L2.91206 6.95519L3.59015 7.23458C3.55744 7.31398 3.52605 7.39259 3.49665 7.46993L6.65398 8.54184ZM6.65398 8.54184C6.78359 8.62825 6.91995 8.69636 7.01202 8.74234C7.01631 8.74448 7.0205 8.74658 7.02459 8.74862C7.15697 8.81481 7.29333 8.87008 7.43352 8.91285C7.59316 8.96531 7.77492 9.00808 7.97625 9.02435C8.18521 9.04895 8.39478 9.04895 8.60375 9.02435C8.80138 9.00838 8.98016 8.96687 9.13766 8.91573L6.65398 8.54184ZM3.48636 7.49635L3.49665 7.46993L9.22 8.0778L9.55541 8.74862C9.5595 8.74658 9.56369 8.74448 9.56798 8.74234C9.56801 8.74233 9.56805 8.74231 9.56809 8.74229C9.6581 8.69733 9.7904 8.63124 9.91734 8.5476C10.7468 8.02207 11.29 7.08728 11.29 6.0378V4.9978C11.29 4.86202 11.4042 4.7478 11.54 4.7478H12.46C12.5958 4.7478 12.71 4.86202 12.71 4.9978V6.0378C12.71 7.79636 14.2286 9.21007 16.0269 9.02385C17.6366 8.85854 18.71 7.40178 18.71 5.9078V5.8078C18.71 5.6006 18.951 5.47541 19.1204 5.59813C20.1126 6.35495 20.75 7.52784 20.75 8.8678V17.6278C20.75 19.9036 18.9058 21.7478 16.63 21.7478H7.37C5.09421 21.7478 3.25 19.9036 3.25 17.6278V8.8678C3.25 8.76015 3.25761 8.64809 3.26778 8.5057C3.27769 8.38706 3.28531 8.31122 3.2979 8.24197C3.30002 8.23033 3.30186 8.21865 3.30342 8.20693C3.31926 8.08816 3.34243 7.97434 3.37114 7.87384L3.37126 7.87388L3.37468 7.86105C3.41628 7.70503 3.44569 7.598 3.48636 7.49635ZM3.89356 6.66578C3.8935 6.66585 3.89349 6.66586 3.89353 6.66581L3.89356 6.66578Z" stroke="#898993" stroke-width="1.5" stroke-linejoin="round"/>
<path fill-rule="evenodd" clip-rule="evenodd" d="M8.00486 18.0378C8.00486 18.4478 8.33486 18.7878 8.75486 18.7878C9.17486 18.7878 9.50486 18.4478 9.50486 18.0278V17.3928H10.1499C10.5599 17.3928 10.8999 17.0628 10.8999 16.6428C10.8999 16.2228 10.5599 15.8928 10.1499 15.8928H9.50486V15.2478C9.50486 14.8378 9.17486 14.4978 8.75486 14.4978C8.33486 14.4978 8.00486 14.8378 8.00486 15.2478V15.8928H7.35986C6.94986 15.8928 6.60986 16.2228 6.60986 16.6428C6.60986 17.0628 6.94986 17.3928 7.36986 17.3928H8.00486V18.0378Z" fill="#898993"/>
</svg>
