<svg width="22" height="22" viewBox="0 0 22 22" fill="none" xmlns="http://www.w3.org/2000/svg">
<g id="Icon">
<path id="shape" d="M15.1528 7.82012C15.4213 7.55163 15.4213 7.11633 15.1528 6.84785C14.8843 6.57936 14.449 6.57936 14.1805 6.84785L11 10.0284L7.81947 6.84785C7.55099 6.57936 7.11569 6.57936 6.8472 6.84785C6.57871 7.11633 6.57871 7.55163 6.8472 7.82012L10.0277 11.0007L6.8472 14.1812C6.57871 14.4497 6.57871 14.885 6.8472 15.1535C7.11569 15.4219 7.55099 15.4219 7.81947 15.1535L11 11.9729L14.1805 15.1535C14.449 15.4219 14.8843 15.4219 15.1528 15.1535C15.4213 14.885 15.4213 14.4497 15.1528 14.1812L11.9723 11.0007L15.1528 7.82012Z" fill="#E04748"/>
</g>
</svg>
