<svg width="20" height="20" viewBox="0 0 20 20" fill="none" xmlns="http://www.w3.org/2000/svg">
<path fill-rule="evenodd" clip-rule="evenodd" d="M18.3168 8.99199V5.65866C18.3168 3.00033 16.9835 1.66699 14.3252 1.66699H8.99183C7.3335 1.66699 6.20016 2.18366 5.57516 3.21699C5.42516 3.46699 5.62516 3.75866 5.91683 3.75866L10.9918 3.75033C14.3252 3.75033 16.2335 5.65866 16.2335 8.99199L16.2252 12.0753C16.2252 12.367 16.5168 12.567 16.7668 12.417C17.8002 11.792 18.3168 10.6587 18.3168 8.99199ZM5.65829 5.00033H10.9916C13.65 5.00033 14.9833 6.33366 14.9833 8.99199V12.3253C14.9833 12.542 14.975 12.7503 14.95 12.9503C14.7583 15.2003 13.4333 16.317 10.9916 16.317H10.6583C10.45 16.317 10.25 16.417 10.125 16.5837L9.12496 17.917C8.68329 18.5087 7.96663 18.5087 7.52496 17.917L6.52496 16.5837C6.41663 16.442 6.17496 16.317 5.99163 16.317H5.65829C2.99996 16.317 1.66663 15.6587 1.66663 12.3253V8.99199C1.66663 6.55033 2.79163 5.22533 5.03329 5.03366C5.23329 5.00866 5.44163 5.00033 5.65829 5.00033ZM4.58329 10.8337C4.58329 11.292 4.94996 11.667 5.41663 11.667C5.87496 11.667 6.24996 11.292 6.24996 10.8337C6.24996 10.3753 5.87496 10.0003 5.41663 10.0003C4.95829 10.0003 4.58329 10.3753 4.58329 10.8337ZM7.49163 10.8337C7.49163 11.292 7.85829 11.667 8.32496 11.667C8.79163 11.667 9.15829 11.292 9.15829 10.8337C9.15829 10.3753 8.78329 10.0003 8.32496 10.0003C7.86663 10.0003 7.49163 10.3753 7.49163 10.8337ZM10.4083 10.8337C10.4083 11.292 10.775 11.667 11.2416 11.667C11.7 11.667 12.075 11.292 12.075 10.8337C12.075 10.3753 11.7 10.0003 11.2416 10.0003C10.7833 10.0003 10.4083 10.3753 10.4083 10.8337Z" fill="#898993"/>
</svg>
