<svg width="24" height="24" viewBox="0 0 24 24" fill="none" xmlns="http://www.w3.org/2000/svg">
<g id="Icon">
<path id="shape" fill-rule="evenodd" clip-rule="evenodd" d="M2.75 8.5C2.75 5.89333 4.8851 3.75 7.5 3.75H12.5C15.1058 3.75 17.25 5.89421 17.25 8.5C17.25 11.1067 15.1149 13.25 12.5 13.25H10C9.58579 13.25 9.25 13.5858 9.25 14C9.25 14.4142 9.58579 14.75 10 14.75H12.5C15.9451 14.75 18.75 11.9333 18.75 8.5C18.75 5.06579 15.9342 2.25 12.5 2.25H7.5C4.0549 2.25 1.25 5.06667 1.25 8.5C1.25 10.0138 1.79696 11.4016 2.69333 12.4795C2.95818 12.798 3.43106 12.8415 3.74954 12.5767C4.06802 12.3118 4.1115 11.8389 3.84666 11.5205C3.16303 10.6984 2.75 9.6462 2.75 8.5ZM6.75 15.5C6.75 12.8933 8.8851 10.75 11.5 10.75H14C14.4142 10.75 14.75 10.4142 14.75 10C14.75 9.58579 14.4142 9.25 14 9.25H11.5C8.0549 9.25 5.25 12.0667 5.25 15.5C5.25 18.9342 8.06579 21.75 11.5 21.75H16.5C19.9451 21.75 22.75 18.9333 22.75 15.5C22.75 13.9862 22.203 12.5984 21.3067 11.5205C21.0418 11.202 20.5689 11.1585 20.2505 11.4233C19.932 11.6882 19.8885 12.1611 20.1533 12.4795C20.837 13.3016 21.25 14.3538 21.25 15.5C21.25 18.1067 19.1149 20.25 16.5 20.25H11.5C8.89421 20.25 6.75 18.1058 6.75 15.5Z" fill="#292D32"/>
</g>
</svg>
