<svg width="24" height="24" viewBox="0 0 24 24" fill="none" xmlns="http://www.w3.org/2000/svg">
<g id="Icon">
<path id="shape" fill-rule="evenodd" clip-rule="evenodd" d="M4.74004 4.0293C4.01189 4.0293 3.42004 4.61587 3.42004 5.3493V7.1693C3.42004 7.58351 3.08426 7.9193 2.67004 7.9193C2.25583 7.9193 1.92004 7.58351 1.92004 7.1693V5.3493C1.92004 3.78272 3.18819 2.5293 4.74004 2.5293H19.26C20.8266 2.5293 22.08 3.79745 22.08 5.3493V7.1693C22.08 7.58351 21.7443 7.9193 21.33 7.9193C20.9158 7.9193 20.58 7.58351 20.58 7.1693V5.3493C20.58 4.62115 19.9935 4.0293 19.26 4.0293H12.7458C12.7486 4.05561 12.75 4.08232 12.75 4.10938V19.9692H15.94C16.3542 19.9692 16.69 20.305 16.69 20.7192C16.69 21.1335 16.3542 21.4692 15.94 21.4692H12.0144C12.0096 21.4693 12.0048 21.4694 12 21.4694C11.9952 21.4694 11.9904 21.4693 11.9856 21.4692H8.06003C7.64581 21.4692 7.31003 21.1335 7.31003 20.7192C7.31003 20.305 7.64581 19.9692 8.06003 19.9692H11.25V4.10938C11.25 4.08232 11.2515 4.05561 11.2543 4.0293H4.74004Z" fill="#292D32"/>
</g>
</svg>
