<svg width="24" height="24" viewBox="0 0 24 24" fill="none" xmlns="http://www.w3.org/2000/svg">
<g id="Icon">
<path id="Union" fill-rule="evenodd" clip-rule="evenodd" d="M3.75 7C3.75 5.61497 4.09637 4.57535 4.7371 3.88534C5.36848 3.20538 6.39295 2.75 8 2.75H16C17.607 2.75 18.6315 3.20538 19.2629 3.88534C19.9036 4.57535 20.25 5.61497 20.25 7V17C20.25 18.385 19.9036 19.4246 19.2629 20.1147C18.6315 20.7946 17.607 21.25 16 21.25H8C6.39295 21.25 5.36848 20.7946 4.7371 20.1147C4.09637 19.4246 3.75 18.385 3.75 17V7ZM8 1.25C6.10705 1.25 4.63152 1.79462 3.6379 2.86466C2.65363 3.92465 2.25 5.38503 2.25 7V17C2.25 18.615 2.65363 20.0754 3.6379 21.1353C4.63152 22.2054 6.10705 22.75 8 22.75H16C17.893 22.75 19.3685 22.2054 20.3621 21.1353C21.3464 20.0754 21.75 18.615 21.75 17V7C21.75 5.38503 21.3464 3.92465 20.3621 2.86466C19.3685 1.79462 17.893 1.25 16 1.25H8ZM15.25 4.5C15.25 4.08579 14.9142 3.75 14.5 3.75C14.0858 3.75 13.75 4.08579 13.75 4.5V6.5C13.75 8.01421 14.9858 9.25 16.5 9.25H18.5C18.9142 9.25 19.25 8.91421 19.25 8.5C19.25 8.08579 18.9142 7.75 18.5 7.75H16.5C15.8142 7.75 15.25 7.18579 15.25 6.5V4.5ZM10.5303 12.4697C10.8232 12.7626 10.8232 13.2374 10.5303 13.5303L9.06066 15L10.5303 16.4697C10.8232 16.7626 10.8232 17.2374 10.5303 17.5303C10.2374 17.8232 9.76256 17.8232 9.46967 17.5303L7.46967 15.5303C7.17678 15.2374 7.17678 14.7626 7.46967 14.4697L9.46967 12.4697C9.76256 12.1768 10.2374 12.1768 10.5303 12.4697ZM14.5303 12.4697C14.2374 12.1768 13.7626 12.1768 13.4697 12.4697C13.1768 12.7626 13.1768 13.2374 13.4697 13.5303L14.9393 15L13.4697 16.4697C13.1768 16.7626 13.1768 17.2374 13.4697 17.5303C13.7626 17.8232 14.2374 17.8232 14.5303 17.5303L16.5303 15.5303C16.8232 15.2374 16.8232 14.7626 16.5303 14.4697L14.5303 12.4697Z" fill="#292D32"/>
</g>
</svg>
