<svg width="24" height="24" viewBox="0 0 24 24" fill="none" xmlns="http://www.w3.org/2000/svg">
<g id="Icon">
<path id="shape" fill-rule="evenodd" clip-rule="evenodd" d="M5.68849 5.14157C5.88407 5.28254 5.99996 5.50892 5.99996 5.75001V8.50001H6.24996C6.66417 8.50001 6.99996 8.83579 6.99996 9.25001C6.99996 9.66422 6.66417 10 6.24996 10H5.24996H3.74996C3.33575 10 2.99996 9.66422 2.99996 9.25001C2.99996 8.83579 3.33575 8.50001 3.74996 8.50001H4.49996V6.79057L3.98713 6.96152C3.59417 7.0925 3.16943 6.88013 3.03845 6.48718C2.90746 6.09422 3.11983 5.66948 3.51279 5.53849L5.01279 5.03849C5.2415 4.96226 5.49292 5.00061 5.68849 5.14157ZM2.99997 15.5C2.99997 14.6716 3.67154 14 4.49997 14H5.49997C6.3284 14 6.99997 14.6716 6.99997 15.5V15.666C6.99997 16.0912 6.81949 16.4965 6.50342 16.7809L5.70444 17.5H6.24997C6.66418 17.5 6.99997 17.8358 6.99997 18.25C6.99997 18.6642 6.66418 19 6.24997 19H3.74997C3.43943 19 3.16101 18.8086 3.04975 18.5187C2.9385 18.2288 3.01742 17.9003 3.24825 17.6925L5.49997 15.666V15.5H4.49997C4.49997 15.9142 4.16418 16.25 3.74997 16.25C3.33576 16.25 2.99997 15.9142 2.99997 15.5ZM9.74997 6.25C9.33576 6.25 8.99997 6.58579 8.99997 7C8.99997 7.41421 9.33576 7.75 9.74997 7.75H21C21.4142 7.75 21.75 7.41421 21.75 7C21.75 6.58579 21.4142 6.25 21 6.25H9.74997ZM8.99997 12C8.99997 11.5858 9.33576 11.25 9.74997 11.25H21C21.4142 11.25 21.75 11.5858 21.75 12C21.75 12.4142 21.4142 12.75 21 12.75H9.74997C9.33576 12.75 8.99997 12.4142 8.99997 12ZM9.74997 16.25C9.33576 16.25 8.99997 16.5858 8.99997 17C8.99997 17.4142 9.33576 17.75 9.74997 17.75H21C21.4142 17.75 21.75 17.4142 21.75 17C21.75 16.5858 21.4142 16.25 21 16.25H9.74997Z" fill="#292D32"/>
</g>
</svg>
