<svg width="24" height="24" viewBox="0 0 24 24" fill="none" xmlns="http://www.w3.org/2000/svg">
<g id="Icon">
<path id="Vector" d="M4.84615 21V12.5M4.84615 21H6.69231M4.84615 21H3M4.84615 4V12.5M4.84615 4H6.69231M4.84615 4H3M13.1538 21V12.5M13.1538 21H11.3077M13.1538 21H15M13.1538 4V12.5M13.1538 4H11.3077M13.1538 4H15M4.84615 12.5H13.1538" stroke="#292D32" stroke-width="1.5" stroke-linecap="round" stroke-linejoin="round"/>
<path id="Vector 6" d="M17 11C17 11 17.4903 9 19.4516 9C21.4129 9 22.3119 10.5 21.9033 13C21.4947 15.5 17 19 17 21C18 21 22.1533 21 22.1533 21" stroke="#292D32" stroke-width="1.5" stroke-linecap="round" stroke-linejoin="round"/>
</g>
</svg>
