<svg width="24" height="24" viewBox="0 0 24 24" fill="none" xmlns="http://www.w3.org/2000/svg">
<path d="M4.84615 21V12.5M4.84615 21C4.84615 21 5.97134 21 6.69231 21M4.84615 21H3M4.84615 4V12.5M4.84615 4C4.84615 4 5.97134 4 6.69231 4M4.84615 4H3M13.1538 21V12.5M13.1538 21H11.3077M13.1538 21H15M13.1538 4V12.5M13.1538 4H11.3077M13.1538 4H15M4.84615 12.5H13.1538" stroke="#292D32" stroke-width="1.5" stroke-linecap="round" stroke-linejoin="round"/>
<path d="M22 21V16M22 9V16M17 9V16H22" stroke="#292D32" stroke-width="1.5" stroke-linecap="round" stroke-linejoin="round"/>
</svg>
