<svg width="24" height="24" viewBox="0 0 24 24" fill="none" xmlns="http://www.w3.org/2000/svg">
<g id="Icon">
<path id="shape" fill-rule="evenodd" clip-rule="evenodd" d="M3.4 11.6295H8.09C9.85 11.6295 11.18 12.9595 11.18 14.7095V17.7095C11.18 19.4695 9.85 20.7995 8.09 20.7995H5.09C3.39 20.7995 2 19.4195 2 17.7095V12.3195C2 6.50948 3.18 5.28948 6.56 3.28948C6.89 3.08948 7.32 3.19948 7.51 3.52948C7.71 3.86948 7.6 4.28948 7.27 4.48948C4.4 6.18948 3.48 6.95948 3.4 11.6295ZM14.22 11.6295H18.91C20.67 11.6295 22 12.9595 21.99 14.7195V17.7195C21.99 19.4795 20.66 20.8095 18.9 20.8095H15.9C14.2 20.8095 12.81 19.4295 12.81 17.7195V12.3295C12.81 6.50948 13.99 5.28948 17.37 3.28948C17.71 3.08948 18.13 3.19948 18.33 3.52948C18.53 3.86948 18.42 4.28948 18.09 4.48948C15.22 6.18948 14.3 6.95948 14.22 11.6295Z" fill="#292D32"/>
</g>
</svg>
