<svg width="24" height="22" viewBox="0 0 24 22" fill="none" xmlns="http://www.w3.org/2000/svg">
<path d="M18 0.800781H6C2.4 0.800781 0 2.60078 0 6.80078V15.2008C0 19.4008 2.4 21.2008 6 21.2008H18C21.6 21.2008 24 19.4008 24 15.2008V6.80078C24 2.60078 21.6 0.800781 18 0.800781ZM18.564 8.10878L14.808 11.1088C14.016 11.7448 13.008 12.0568 12 12.0568C10.992 12.0568 9.972 11.7448 9.192 11.1088L5.436 8.10878C5.052 7.79678 4.992 7.22078 5.292 6.83678C5.604 6.45278 6.168 6.38078 6.552 6.69278L10.308 9.69278C11.22 10.4248 12.768 10.4248 13.68 9.69278L17.436 6.69278C17.82 6.38078 18.396 6.44078 18.696 6.83678C19.008 7.22078 18.948 7.79678 18.564 8.10878Z" fill="#70717A"/>
</svg>
