<svg width="28" height="28" viewBox="0 0 28 28" fill="none" xmlns="http://www.w3.org/2000/svg">
<path fill-rule="evenodd" clip-rule="evenodd" d="M19.5419 2.33398V4.15398C22.6919 4.44565 24.2203 6.32398 24.4536 9.11232C24.4886 9.43898 24.2086 9.73065 23.8703 9.73065H4.13027C3.8036 9.73065 3.5236 9.45065 3.54693 9.11232C3.78027 6.32398 5.3086 4.44565 8.4586 4.15398V2.33398C8.4586 1.85565 8.85527 1.45898 9.3336 1.45898C9.81193 1.45898 10.2086 1.85565 10.2086 2.33398V4.08398H17.7919V2.33398C17.7919 1.85565 18.1886 1.45898 18.6669 1.45898C19.1453 1.45898 19.5419 1.85565 19.5419 2.33398ZM4.66667 11.4805H23.3333C23.975 11.4805 24.5 12.0055 24.5 12.6471V19.8338C24.5 23.3338 22.75 25.6671 18.6667 25.6671H9.33333C5.25 25.6671 3.5 23.3338 3.5 19.8338V12.6471C3.5 12.0055 4.025 11.4805 4.66667 11.4805ZM10.36 21.4905C10.5 21.4321 10.6283 21.3505 10.745 21.2455C10.955 21.0238 11.0833 20.7205 11.0833 20.4171C11.0833 20.1138 10.955 19.8105 10.745 19.5888C10.6283 19.4838 10.5 19.4021 10.36 19.3438C10.08 19.2271 9.75333 19.2271 9.47333 19.3438C9.33333 19.4021 9.205 19.4838 9.08833 19.5888C8.87833 19.8105 8.75 20.1138 8.75 20.4171C8.75 20.7205 8.87833 21.0238 9.08833 21.2455C9.205 21.3505 9.33333 21.4321 9.47333 21.4905C9.61333 21.5488 9.765 21.5838 9.91667 21.5838C10.0683 21.5838 10.22 21.5488 10.36 21.4905ZM10.745 17.1621C10.85 17.0455 10.9317 16.9171 10.99 16.7771C11.0483 16.6371 11.0833 16.4855 11.0833 16.3338C11.0833 16.1821 11.0483 16.0305 10.99 15.8905C10.9317 15.7505 10.85 15.6221 10.745 15.5055C10.6283 15.4005 10.5 15.3188 10.36 15.2605C10.08 15.1438 9.75333 15.1438 9.47333 15.2605C9.33333 15.3188 9.205 15.4005 9.08833 15.5055C8.98333 15.6221 8.90167 15.7505 8.84333 15.8905C8.785 16.0305 8.75 16.1821 8.75 16.3338C8.75 16.4855 8.785 16.6371 8.84333 16.7771C8.90167 16.9171 8.98333 17.0455 9.08833 17.1621C9.205 17.2671 9.33333 17.3488 9.47333 17.4071C9.61333 17.4655 9.765 17.5005 9.91667 17.5005C10.0683 17.5005 10.22 17.4655 10.36 17.4071C10.5 17.3488 10.6283 17.2671 10.745 17.1621ZM14.4433 17.4071C14.5833 17.3488 14.7117 17.2671 14.8283 17.1621C15.0383 16.9405 15.1667 16.6371 15.1667 16.3338C15.1667 16.0305 15.0383 15.7271 14.8283 15.5055C14.7117 15.4005 14.5833 15.3188 14.4433 15.2605C14.1633 15.1321 13.8367 15.1321 13.5567 15.2605C13.4167 15.3188 13.2883 15.4005 13.1717 15.5055C12.9617 15.7271 12.8333 16.0305 12.8333 16.3338C12.8333 16.6371 12.9617 16.9405 13.1717 17.1621C13.2883 17.2671 13.4167 17.3488 13.5567 17.4071C13.6967 17.4655 13.8483 17.5005 14 17.5005C14.1517 17.5005 14.3033 17.4655 14.4433 17.4071Z" fill="#898993"/>
</svg>
