<svg width="24" height="24" viewBox="0 0 24 24" fill="none" xmlns="http://www.w3.org/2000/svg">
<g id="eye-off">
<path id="shape" fill-rule="evenodd" clip-rule="evenodd" d="M20.68 2.22988C20.98 1.92988 21.47 1.92988 21.77 2.22988C22.08 2.52988 22.08 3.00988 21.77 3.30988L3.31 21.7699C3.16 21.9199 2.97 21.9999 2.77 21.9999C2.57 21.9999 2.38 21.9199 2.23 21.7799C1.93 21.4799 1.93 20.9899 2.23 20.6899L5.16946 17.7488C4.28367 16.9363 3.46603 15.9592 2.75 14.8399C1.75 13.2699 1.75 10.7199 2.75 9.14993C3.91 7.32993 5.33 5.89993 6.91 4.91993C8.49 3.95993 10.22 3.42993 12 3.42993C13.9861 3.42993 15.9167 4.08036 17.6292 5.28233L20.68 2.22988ZM14.267 8.64633C13.6216 8.20855 12.8419 7.95993 12 7.95993C9.76 7.95993 7.96 9.76993 7.96 11.9999C7.96 12.8415 8.21409 13.621 8.65014 14.2663L9.51436 13.4016C9.27837 12.9848 9.14001 12.5049 9.14001 11.9999C9.14001 10.4299 10.42 9.13989 12 9.13989C12.5045 9.13989 12.9839 9.27795 13.4004 9.51348L14.267 8.64633ZM21.27 9.18005C20.98 8.72005 20.67 8.29005 20.35 7.89005C19.98 7.42005 19.28 7.38005 18.86 7.80005L15.86 10.8001C16.08 11.4601 16.12 12.22 15.92 13.01C15.57 14.4201 14.43 15.5601 13.02 15.9101C12.23 16.1101 11.47 16.0701 10.81 15.8501L8.35001 18.3101C7.85001 18.8101 8.01001 19.6901 8.68001 19.9501C9.75001 20.3601 10.86 20.57 12 20.57C13.78 20.57 15.51 20.0501 17.09 19.0801C18.7 18.0801 20.15 16.6101 21.32 14.74C22.27 13.2301 22.22 10.6901 21.27 9.18005ZM14.86 12.0001C14.86 13.5701 13.58 14.8601 12 14.8601H12C11.94 14.8601 11.89 14.8601 11.83 14.8401L14.84 11.8301C14.86 11.8901 14.86 11.9401 14.86 12.0001V12.0001Z" fill="#898993"/>
</g>
</svg>
