<svg width="20" height="20" viewBox="0 0 20 20" fill="none" xmlns="http://www.w3.org/2000/svg">
<g clip-path="url(#clip0_1720_153477)">
<path d="M19.805 10.2303C19.805 9.55058 19.7499 8.86713 19.6323 8.19838H10.2V12.0492H15.6014C15.3773 13.2912 14.6571 14.3898 13.6025 15.088V17.5866H16.825C18.7173 15.8449 19.805 13.2728 19.805 10.2303Z" fill="#4285F4"/>
<path d="M10.1999 20.0007C12.897 20.0007 15.1714 19.1151 16.8286 17.5866L13.6061 15.088C12.7096 15.6979 11.5521 16.0433 10.2036 16.0433C7.59474 16.0433 5.38272 14.2833 4.58904 11.9169H1.26367V14.4927C2.96127 17.8695 6.41892 20.0007 10.1999 20.0007V20.0007Z" fill="#34A853"/>
<path d="M4.5854 11.9169C4.16651 10.6749 4.16651 9.3301 4.5854 8.08814V5.51235H1.2637C-0.154633 8.338 -0.154633 11.667 1.2637 14.4927L4.5854 11.9169V11.9169Z" fill="#FBBC04"/>
<path d="M10.1999 3.95805C11.6256 3.936 13.0035 4.47247 14.036 5.45722L16.8911 2.60218C15.0833 0.904587 12.6838 -0.0287217 10.1999 0.000673888C6.41892 0.000673888 2.96126 2.13185 1.26367 5.51234L4.58537 8.08813C5.37537 5.71811 7.59106 3.95805 10.1999 3.95805V3.95805Z" fill="#EA4335"/>
</g>
<defs>
<clipPath id="clip0_1720_153477">
<rect width="20" height="20" fill="white"/>
</clipPath>
</defs>
</svg>
