<svg width="16" height="17" viewBox="0 0 16 17" fill="none" xmlns="http://www.w3.org/2000/svg">
<g id="Icon">
<path id="shape" fill-rule="evenodd" clip-rule="evenodd" d="M7.40378 3.3051C7.48011 2.89798 7.21196 2.50606 6.80484 2.42973C6.39772 2.35339 6.00581 2.62155 5.92947 3.02867L5.41918 5.75022H3.33329C2.91908 5.75022 2.58329 6.086 2.58329 6.50022C2.58329 6.91443 2.91908 7.25022 3.33329 7.25022H5.13793L4.66918 9.75022H2.66663C2.25241 9.75022 1.91663 10.086 1.91663 10.5002C1.91663 10.9144 2.25241 11.2502 2.66663 11.2502H4.38793L3.92947 13.6953C3.85314 14.1025 4.12129 14.4944 4.52841 14.5707C4.93553 14.647 5.32745 14.3789 5.40378 13.9718L5.91407 11.2502H9.0546L8.59614 13.6953C8.5198 14.1025 8.78796 14.4944 9.19508 14.5707C9.6022 14.647 9.99411 14.3789 10.0704 13.9718L10.5807 11.2502H12.6666C13.0808 11.2502 13.4166 10.9144 13.4166 10.5002C13.4166 10.086 13.0808 9.75022 12.6666 9.75022H10.862L11.3307 7.25022H13.3333C13.7475 7.25022 14.0833 6.91443 14.0833 6.50022C14.0833 6.086 13.7475 5.75022 13.3333 5.75022H11.612L12.0704 3.3051C12.1468 2.89798 11.8786 2.50606 11.4715 2.42973C11.0644 2.35339 10.6725 2.62155 10.5961 3.02867L10.0858 5.75022H6.94532L7.40378 3.3051ZM9.33585 9.75022L9.8046 7.25022H6.66407L6.19532 9.75022H9.33585Z" fill="#898993"/>
</g>
</svg>
