<svg width="24" height="24" viewBox="0 0 24 24" fill="none" xmlns="http://www.w3.org/2000/svg">
<path id="shape" fill-rule="evenodd" clip-rule="evenodd" d="M1.25 8.69156C1.25 5.19086 4.07229 2.35156 7.56 2.35156C9.28835 2.35156 10.8621 3.05758 12 4.19068C13.1379 3.05758 14.7117 2.35156 16.44 2.35156C19.9277 2.35156 22.75 5.19086 22.75 8.69156C22.75 9.9622 22.547 11.1392 22.1944 12.23C21.3504 14.8988 19.6379 17.0063 17.8501 18.5429C16.0666 20.0756 14.1654 21.0773 12.8651 21.5204C12.591 21.6163 12.2771 21.6516 12 21.6516C11.7229 21.6516 11.409 21.6163 11.1349 21.5204C9.83464 21.0773 7.93337 20.0756 6.14991 18.5429C4.36206 17.0063 2.6496 14.8988 1.80563 12.23C1.45299 11.1392 1.25 9.96219 1.25 8.69156ZM7.56 3.85156C4.90771 3.85156 2.75 6.01227 2.75 8.69156C2.75 9.79999 2.92671 10.8222 3.23358 11.7707L3.23516 11.7756L3.23514 11.7756C3.97144 14.1056 5.48349 15.9923 7.12759 17.4053C8.775 18.8211 10.5119 19.724 11.6216 20.1015L11.6296 20.1043L11.6296 20.1043C11.6944 20.1272 11.8286 20.1516 12 20.1516C12.1714 20.1516 12.3056 20.1272 12.3704 20.1043L12.3784 20.1015L12.3784 20.1015C13.4881 19.724 15.225 18.8211 16.8724 17.4053C18.5165 15.9923 20.0286 14.1056 20.7649 11.7756L20.7664 11.7707C21.0733 10.8222 21.25 9.79999 21.25 8.69156C21.25 6.01227 19.0923 3.85156 16.44 3.85156C14.8774 3.85156 13.4756 4.61116 12.6005 5.78085L12 6.58354L11.3995 5.78085C10.5244 4.61116 9.12264 3.85156 7.56 3.85156Z" fill="#898993"/>
</svg>
