<svg width="40" height="40" viewBox="0 0 40 40" fill="none" xmlns="http://www.w3.org/2000/svg">
<g id="image">
<path id="shape" fill-rule="evenodd" clip-rule="evenodd" d="M13.0166 3.33398H26.9833C33.05 3.33398 36.6666 6.95065 36.6666 13.0173V23.1673V26.984C36.6666 33.0507 33.05 36.6673 26.9833 36.6673H13.0166C8.76665 36.6673 5.69998 34.884 4.26665 31.7173C3.64998 30.384 3.33331 28.8007 3.33331 26.984V13.0173C3.33331 6.95065 6.94998 3.33398 13.0166 3.33398ZM29.25 20.834C30.55 19.7173 32.65 19.7173 33.95 20.834L34.1666 21.0173V13.0173C34.1666 8.31732 31.6833 5.83398 26.9833 5.83398H13.0166C8.31665 5.83398 5.83331 8.31732 5.83331 13.0173V26.984C5.83331 28.2507 6.04998 29.334 6.41665 30.2673L12.65 26.084C13.9833 25.184 15.8666 25.284 17.05 26.3173L17.6166 26.784C18.9166 27.9007 21.0166 27.9007 22.3166 26.784L29.25 20.834ZM18.9666 13.3342C18.9666 15.5249 17.1907 17.3008 15 17.3008C12.8092 17.3008 11.0333 15.5249 11.0333 13.3342C11.0333 11.1435 12.8092 9.36751 15 9.36751C17.1907 9.36751 18.9666 11.1435 18.9666 13.3342Z" fill="#898993"/>
</g>
</svg>
