<svg width="28" height="28" viewBox="0 0 28 28" fill="none" xmlns="http://www.w3.org/2000/svg">
<path d="M18.8883 2.33398H9.11165C4.86498 2.33398 2.33331 4.86565 2.33331 9.11232V18.8773C2.33331 23.1357 4.86498 25.6673 9.11165 25.6673H18.8766C23.1233 25.6673 25.655 23.1357 25.655 18.889V9.11232C25.6666 4.86565 23.135 2.33398 18.8883 2.33398ZM13.4166 20.1257C13.4166 20.5457 12.9966 20.8256 12.6116 20.6623C11.2 20.0556 9.35665 19.4956 8.07331 19.3323L7.85165 19.309C7.13998 19.2156 6.55665 18.5506 6.55665 17.8273V8.84398C6.55665 7.94565 7.27998 7.28065 8.16665 7.35065C9.62498 7.46732 11.7833 8.16732 13.1366 8.93732C13.3233 9.04232 13.4166 9.24065 13.4166 9.43898V20.1257ZM21.4433 17.8157C21.4433 18.539 20.86 19.204 20.1483 19.2973L19.9033 19.3207C18.6316 19.4956 16.8 20.044 15.3883 20.639C15.0033 20.8023 14.5833 20.5223 14.5833 20.1023V9.42732C14.5833 9.21732 14.6883 9.01898 14.875 8.91398C16.2283 8.15565 18.34 7.47898 19.775 7.35065H19.8216C20.72 7.35065 21.4433 8.07398 21.4433 8.97232V17.8157Z" fill="#898993"/>
</svg>
