<svg width="20" height="20" viewBox="0 0 20 20" fill="none" xmlns="http://www.w3.org/2000/svg">
<path fill-rule="evenodd" clip-rule="evenodd" d="M10.0001 1.66699C5.40841 1.66699 1.66675 5.40866 1.66675 10.0003C1.66675 14.592 5.40841 18.3337 10.0001 18.3337C14.5917 18.3337 18.3334 14.592 18.3334 10.0003C18.3334 5.40866 14.5917 1.66699 10.0001 1.66699ZM7.38076 4.45824C8.63174 3.86706 10.0459 3.71645 11.3933 4.0309C12.7408 4.34535 13.9422 5.10636 14.8023 6.1902C15.6623 7.27403 16.1305 8.61694 16.1306 10.0006V10.0006V10.5387C16.1306 11.1657 15.8815 11.767 15.4381 12.2104C14.9948 12.6537 14.3934 12.9028 13.7664 12.9028C13.1394 12.9028 12.5381 12.6537 12.0947 12.2104C12.0611 12.1768 12.0286 12.1422 11.9973 12.1069C11.477 12.6004 10.774 12.9031 10.0002 12.9031C8.39732 12.9031 7.09788 11.6037 7.09788 10.0008C7.09788 8.39784 8.39732 7.09841 10.0002 7.09841C10.5427 7.09841 11.0504 7.24722 11.4847 7.50625C11.6091 7.2641 11.8613 7.09843 12.1523 7.09843C12.5665 7.09843 12.9023 7.43421 12.9023 7.84843V9.95675C12.9025 9.9714 12.9026 9.98607 12.9026 10.0008C12.9026 10.0155 12.9025 10.0301 12.9023 10.0448V10.5387C12.9023 10.7678 12.9933 10.9876 13.1554 11.1497C13.3174 11.3118 13.5372 11.4028 13.7664 11.4028C13.9956 11.4028 14.2154 11.3118 14.3775 11.1497C14.5395 10.9876 14.6306 10.7678 14.6306 10.5387V10.0007V10.0006C14.6305 8.95555 14.2769 7.94124 13.6273 7.12261C12.9776 6.30397 12.0702 5.72916 11.0524 5.49165C10.0347 5.25414 8.96655 5.3679 8.02166 5.81443C7.07678 6.26096 6.31073 7.01399 5.84808 7.95109C5.38543 8.88819 5.25339 9.95424 5.47343 10.9759C5.69348 11.9975 6.25265 12.9147 7.06005 13.5783C7.86744 14.2418 8.87556 14.6128 9.92049 14.6307C10.9654 14.6487 11.9857 14.3127 12.8154 13.6772C13.1443 13.4254 13.615 13.4878 13.8669 13.8167C14.1187 14.1456 14.0563 14.6163 13.7274 14.8682C12.6289 15.7094 11.2781 16.1543 9.8947 16.1305C8.51127 16.1067 7.17658 15.6156 6.10764 14.7371C5.0387 13.8586 4.29838 12.6443 4.00706 11.2917C3.71574 9.9391 3.89055 8.52772 4.50307 7.28705C5.11559 6.04639 6.12979 5.04942 7.38076 4.45824ZM10.0002 11.4031C10.7645 11.4031 11.386 10.7917 11.4023 10.0313V9.9702C11.386 9.20981 10.7645 8.59841 10.0002 8.59841C9.22574 8.59841 8.59788 9.22627 8.59788 10.0008C8.59788 10.7753 9.22574 11.4031 10.0002 11.4031Z" fill="#898993"/>
</svg>
