<svg width="28" height="28" viewBox="0 0 28 28" fill="none" xmlns="http://www.w3.org/2000/svg">
<path fill-rule="evenodd" clip-rule="evenodd" d="M25.6666 12.659V9.11232C25.6666 4.86565 23.135 2.33398 18.8883 2.33398H9.11165C4.86498 2.33398 2.33331 4.86565 2.33331 9.11232V12.659C2.58998 12.5657 2.86998 12.519 3.14998 12.519H7.23331C9.04165 12.519 10.6633 13.5223 11.4683 15.144L12.3433 16.859H15.68L16.555 15.1323C17.36 13.5223 18.9816 12.519 20.79 12.519H24.85C25.13 12.519 25.41 12.5657 25.6666 12.659ZM20.79 14.269H24.85C25.305 14.269 25.6666 14.6423 25.6666 15.0856V19.5773C25.3633 23.474 22.9016 25.6673 18.9 25.6673H9.12331C4.87665 25.6673 2.33331 23.1356 2.33331 18.9006V15.0973C2.33331 14.6423 2.69498 14.2806 3.14998 14.2806H7.23331C8.36498 14.2806 9.39165 14.9223 9.90498 15.9373L10.885 17.8623C11.2233 18.539 11.7366 18.6206 12.0983 18.6206H15.925C16.4383 18.6206 16.905 18.329 17.1383 17.8623L18.1183 15.9256C18.6316 14.899 19.6466 14.269 20.79 14.269Z" fill="#898993"/>
</svg>
