<svg width="28" height="28" viewBox="0 0 28 28" fill="none" xmlns="http://www.w3.org/2000/svg">
<path fill-rule="evenodd" clip-rule="evenodd" d="M25.6666 5.83398C25.6666 7.76698 24.0996 9.33398 22.1666 9.33398C20.2336 9.33398 18.6666 7.76698 18.6666 5.83398C18.6666 3.90099 20.2336 2.33398 22.1666 2.33398C24.0996 2.33398 25.6666 3.90099 25.6666 5.83398ZM24.5 19.2273V12.134C24.5 11.3873 23.8233 10.8507 23.1 10.9907C23.0883 10.9907 23.0766 10.9936 23.065 10.9965C23.0533 10.9994 23.0416 11.0023 23.03 11.0023C22.9671 11.0149 22.9041 11.0241 22.8394 11.0336C22.7841 11.0416 22.7274 11.0499 22.6683 11.0607C22.1783 11.1073 21.6533 11.084 21.1166 10.979C21.0847 10.971 21.054 10.9636 21.0241 10.9564C20.9228 10.9321 20.8307 10.91 20.7316 10.874C20.3466 10.7806 19.985 10.629 19.6466 10.4307C19.5279 10.3713 19.4092 10.2952 19.2976 10.2236C19.2776 10.2108 19.2578 10.1981 19.2383 10.1857C18.6783 9.80065 18.2 9.32232 17.815 8.76232C17.8026 8.7428 17.7899 8.72302 17.777 8.70301C17.7055 8.59141 17.6293 8.4727 17.57 8.35398C17.3716 8.01565 17.22 7.65398 17.1266 7.26898C17.0906 7.16991 17.0685 7.07779 17.0442 6.97653C17.037 6.94662 17.0296 6.91591 17.0216 6.88398C16.9166 6.34732 16.8933 5.82232 16.94 5.33232C16.9507 5.27321 16.959 5.21657 16.9671 5.16127C16.9765 5.09651 16.9857 5.03358 16.9983 4.97065C16.9983 4.95898 17.0012 4.94732 17.0041 4.93565C17.0071 4.92398 17.01 4.91232 17.01 4.90065C17.15 4.17732 16.6133 3.50065 15.8666 3.50065H8.77331C8.60998 3.50065 8.44665 3.51232 8.29498 3.52398C8.15498 3.53565 8.02665 3.54732 7.88665 3.57065C7.74665 3.58232 7.60665 3.60565 7.47831 3.62898C4.66665 4.03732 2.86998 5.82232 2.46165 8.64565C2.43831 8.77398 2.41498 8.91398 2.40331 9.05398C2.37998 9.19398 2.36831 9.32232 2.35665 9.46232C2.34498 9.61398 2.33331 9.77732 2.33331 9.94065V19.2273C2.33331 19.3907 2.34498 19.554 2.35665 19.7056C2.36831 19.8457 2.37998 19.974 2.40331 20.114C2.41498 20.254 2.43831 20.394 2.46165 20.5223C2.86998 23.3457 4.66665 25.1307 7.47831 25.539C7.60665 25.5623 7.74665 25.5857 7.88665 25.5973C8.02665 25.6207 8.15498 25.6323 8.29498 25.644C8.44665 25.6556 8.60998 25.6673 8.77331 25.6673H18.06C18.2233 25.6673 18.3866 25.6556 18.5383 25.644C18.6783 25.6323 18.8066 25.6207 18.9466 25.5973C19.0866 25.5857 19.2266 25.5623 19.355 25.539C22.1666 25.1307 23.9633 23.3457 24.3716 20.5223C24.395 20.394 24.4183 20.254 24.43 20.114C24.4533 19.974 24.465 19.8457 24.4766 19.7056C24.4883 19.554 24.5 19.3907 24.5 19.2273Z" fill="#898993"/>
</svg>
