<svg width="22" height="22" viewBox="0 0 22 22" fill="none" xmlns="http://www.w3.org/2000/svg">
<g id="plus">
<path id="shape" fill-rule="evenodd" clip-rule="evenodd" d="M11.7502 4.58337C11.7502 4.16916 11.4144 3.83337 11.0002 3.83337C10.5859 3.83337 10.2502 4.16916 10.2502 4.58337V10.25H4.5835C4.16928 10.25 3.8335 10.5858 3.8335 11C3.8335 11.4143 4.16928 11.75 4.5835 11.75H10.2502V17.4167C10.2502 17.8309 10.5859 18.1667 11.0002 18.1667C11.4144 18.1667 11.7502 17.8309 11.7502 17.4167V11.75H17.4168C17.831 11.75 18.1668 11.4143 18.1668 11C18.1668 10.5858 17.831 10.25 17.4168 10.25H11.7502V4.58337Z" fill="#2F3033"/>
</g>
</svg>
