<svg width="28" height="28" viewBox="0 0 28 28" fill="none" xmlns="http://www.w3.org/2000/svg">
<path fill-rule="evenodd" clip-rule="evenodd" d="M20.5406 6.12435H7.45934C7.5702 5.90659 7.70782 5.71552 7.87864 5.5447C8.75732 4.66602 10.1715 4.66602 13 4.66602H15C17.8284 4.66602 19.2426 4.66602 20.1213 5.5447C20.2921 5.71552 20.4297 5.90659 20.5406 6.12435ZM5.45913 9.0413C5.47271 9.04103 5.48632 9.04089 5.49996 9.04089H22.5406C22.4297 8.82313 22.2921 8.63206 22.1213 8.46124C21.2426 7.58256 19.8284 7.58256 17 7.58256H11C8.17154 7.58256 6.75732 7.58256 5.87864 8.46124C5.70771 8.63217 5.57003 8.82337 5.45913 9.0413ZM2.33331 16.4994C2.33331 13.6709 2.33331 12.2567 3.21199 11.378C4.09067 10.4993 5.50489 10.4993 8.33331 10.4993H19.6666C22.4951 10.4993 23.9093 10.4993 24.788 11.378C25.6666 12.2567 25.6666 13.6709 25.6666 16.4993V19.666C25.6666 22.4944 25.6666 23.9087 24.788 24.7873C23.9093 25.666 22.4951 25.666 19.6666 25.666H8.33332C5.50489 25.666 4.09067 25.666 3.21199 24.7873C2.33331 23.9087 2.33331 22.4944 2.33331 19.666V16.4994Z" fill="#898993"/>
</svg>
