<svg width="24" height="24" viewBox="0 0 24 24" fill="none" xmlns="http://www.w3.org/2000/svg">
<g id="Icon">
<path id="shape" fill-rule="evenodd" clip-rule="evenodd" d="M19.5 11.5C19.5 15.9183 15.9183 19.5 11.5 19.5C7.08172 19.5 3.5 15.9183 3.5 11.5C3.5 7.08172 7.08172 3.5 11.5 3.5C15.9183 3.5 19.5 7.08172 19.5 11.5ZM11.5 21C16.7467 21 21 16.7467 21 11.5C21 6.25329 16.7467 2 11.5 2C6.25329 2 2 6.25329 2 11.5C2 16.7467 6.25329 21 11.5 21ZM20.8101 21.8001C20.9401 21.9301 21.1201 22.0001 21.3001 22.0001C21.4801 22.0001 21.6601 21.9301 21.8001 21.8001C22.0701 21.5201 22.0701 21.0801 21.8001 20.8101L19.9401 18.9501C19.6601 18.6801 19.2201 18.6801 18.9501 18.9501C18.6801 19.2301 18.6801 19.6701 18.9501 19.9401L20.8101 21.8001Z" fill="#898993"/>
</g>
</svg>
