<svg width="28" height="28" viewBox="0 0 28 28" fill="none" xmlns="http://www.w3.org/2000/svg">
<path fill-rule="evenodd" clip-rule="evenodd" d="M24.5 13.4173C24.5 19.5385 19.5378 24.5007 13.4166 24.5007C7.29549 24.5007 2.33331 19.5385 2.33331 13.4173C2.33331 7.29616 7.29549 2.33398 13.4166 2.33398C19.5378 2.33398 24.5 7.29616 24.5 13.4173ZM24.2784 25.4341C24.43 25.5857 24.64 25.6674 24.85 25.6674C25.06 25.6674 25.27 25.5857 25.4334 25.4341C25.7484 25.1074 25.7484 24.5941 25.4334 24.2791L23.2634 22.1091C22.9367 21.7941 22.4234 21.7941 22.1084 22.1091C21.7934 22.4357 21.7934 22.9491 22.1084 23.2641L24.2784 25.4341Z" fill="#898993"/>
</svg>
