<svg width="48" height="48" viewBox="0 0 48 48" fill="none" xmlns="http://www.w3.org/2000/svg">
<path fill-rule="evenodd" clip-rule="evenodd" d="M14.6607 3.77449C14.9804 2.89809 16.2199 2.89809 16.5396 3.77449L19.2896 11.313C19.3907 11.5902 19.6091 11.8086 19.8863 11.9098L27.4248 14.6597C28.3012 14.9794 28.3013 16.2189 27.4249 16.5386L19.8863 19.2886C19.6091 19.3897 19.3907 19.6081 19.2896 19.8853L16.5396 27.4239C16.2199 28.3003 14.9804 28.3003 14.6607 27.4239L11.9107 19.8853C11.8096 19.6081 11.5912 19.3897 11.314 19.2886L3.77547 16.5386C2.89906 16.2189 2.89906 14.9794 3.77546 14.6597L11.314 11.9098C11.5912 11.8086 11.8096 11.5902 11.9107 11.313L14.6607 3.77449ZM35.0568 15.8811C35.3702 14.9902 36.6301 14.9902 36.9435 15.8811L38.6514 20.7365C38.752 21.0225 38.9769 21.2474 39.2629 21.348L44.1183 23.0558C45.0092 23.3692 45.0092 24.6292 44.1183 24.9425L39.2629 26.6504C38.9769 26.751 38.752 26.9759 38.6514 27.2619L36.9435 32.1173C36.6301 33.0082 35.3702 33.0082 35.0568 32.1173L33.349 27.2619C33.2484 26.9759 33.0234 26.751 32.7374 26.6504L27.8821 24.9425C26.9911 24.6292 26.9911 23.3692 27.8821 23.0558L32.7374 21.348C33.0234 21.2474 33.2484 21.0225 33.349 20.7365L35.0568 15.8811ZM20.2647 31.1701C20.0977 30.7495 19.5023 30.7495 19.3353 31.1701L17.6624 35.3823C17.6116 35.5103 17.5103 35.6116 17.3823 35.6624L13.1701 37.3353C12.7495 37.5023 12.7495 38.0977 13.1701 38.2647L17.3823 39.9376C17.5103 39.9884 17.6116 40.0897 17.6624 40.2177L19.3353 44.4299C19.5023 44.8505 20.0977 44.8505 20.2647 44.4299L21.9376 40.2177C21.9884 40.0897 22.0897 39.9884 22.2177 39.9376L26.4299 38.2647C26.8505 38.0977 26.8505 37.5023 26.4299 37.3353L22.2177 35.6624C22.0897 35.6116 21.9884 35.5103 21.9376 35.3823L20.2647 31.1701Z" fill="url(#paint0_linear_791_129884)"/>
<defs>
<linearGradient id="paint0_linear_791_129884" x1="2.67172" y1="24.479" x2="44.7864" y2="24.479" gradientUnits="userSpaceOnUse">
<stop stop-color="#63CCE7"/>
<stop offset="0.484375" stop-color="#768BFF"/>
<stop offset="1" stop-color="#E232E6"/>
</linearGradient>
</defs>
</svg>
