<svg width="20" height="20" viewBox="0 0 20 20" fill="none" xmlns="http://www.w3.org/2000/svg">
<path d="M15 1.66699H5C3.61667 1.66699 2.5 2.77533 2.5 4.14199V13.2337C2.5 14.6003 3.61667 15.717 5 15.717H5.63333C6.29167 15.717 6.93333 15.9753 7.4 16.442L8.825 17.8503C9.475 18.492 10.525 18.492 11.175 17.8503L12.6 16.442C13.0667 15.9753 13.7083 15.717 14.3667 15.717H15C16.3833 15.717 17.5 14.6003 17.5 13.2337V4.14199C17.5 2.77533 16.3833 1.66699 15 1.66699ZM10 4.62533C10.9 4.62533 11.625 5.35866 11.625 6.25033C11.625 7.13366 10.925 7.84199 10.0583 7.87533C10.025 7.87533 9.975 7.87533 9.93333 7.87533C9.05833 7.84199 8.36667 7.13366 8.36667 6.25033C8.375 5.35866 9.1 4.62533 10 4.62533ZM12.2917 12.242C11.0333 13.0837 8.96667 13.0837 7.70833 12.242C6.6 11.5087 6.6 10.292 7.70833 9.55033C8.975 8.70866 11.0417 8.70866 12.2917 9.55033C13.4 10.292 13.4 11.5003 12.2917 12.242Z" fill="#898993"/>
</svg>
