<svg width="24" height="24" viewBox="0 0 24 24" fill="none" xmlns="http://www.w3.org/2000/svg">
<path fill-rule="evenodd" clip-rule="evenodd" d="M10.7372 4.13835C10.8135 3.73123 10.5453 3.33932 10.1382 3.26298C9.7311 3.18665 9.33918 3.4548 9.26285 3.86192L8.44006 8.25013H5C4.58579 8.25013 4.25 8.58592 4.25 9.00013C4.25 9.41435 4.58579 9.75013 5 9.75013H8.15881L7.31506 14.2501H4C3.58579 14.2501 3.25 14.5859 3.25 15.0001C3.25 15.4143 3.58579 15.7501 4 15.7501H7.03381L6.26285 19.8619C6.18651 20.269 6.45466 20.661 6.86178 20.7373C7.2689 20.8136 7.66082 20.5455 7.73715 20.1384L8.55994 15.7501H14.0338L13.2628 19.8619C13.1865 20.269 13.4547 20.661 13.8618 20.7373C14.2689 20.8136 14.6608 20.5455 14.7372 20.1384L15.5599 15.7501H19C19.4142 15.7501 19.75 15.4143 19.75 15.0001C19.75 14.5859 19.4142 14.2501 19 14.2501H15.8412L16.6849 9.75013H20C20.4142 9.75013 20.75 9.41435 20.75 9.00013C20.75 8.58592 20.4142 8.25013 20 8.25013H16.9662L17.7372 4.13835C17.8135 3.73123 17.5453 3.33932 17.1382 3.26298C16.7311 3.18665 16.3392 3.4548 16.2628 3.86192L15.4401 8.25013H9.96619L10.7372 4.13835ZM14.3151 14.2501L15.1588 9.75013H9.68494L8.84119 14.2501H14.3151Z" fill="#AAABAD"/>
</svg>
