<svg width="24" height="24" viewBox="0 0 24 24" fill="none" xmlns="http://www.w3.org/2000/svg">
<g id="Time">
<path id="Vector" d="M11.75 2C6.36547 2 2 6.36547 2 11.75C2 17.1345 6.36547 21.5 11.75 21.5C17.1345 21.5 21.5 17.1345 21.5 11.75C21.5 6.36547 17.1345 2 11.75 2ZM16.25 13.25H11.75C11.5511 13.25 11.3603 13.171 11.2197 13.0303C11.079 12.8897 11 12.6989 11 12.5V5.75C11 5.55109 11.079 5.36032 11.2197 5.21967C11.3603 5.07902 11.5511 5 11.75 5C11.9489 5 12.1397 5.07902 12.2803 5.21967C12.421 5.36032 12.5 5.55109 12.5 5.75V11.75H16.25C16.4489 11.75 16.6397 11.829 16.7803 11.9697C16.921 12.1103 17 12.3011 17 12.5C17 12.6989 16.921 12.8897 16.7803 13.0303C16.6397 13.171 16.4489 13.25 16.25 13.25Z" fill="#898993"/>
</g>
</svg>
