<svg width="24" height="24" viewBox="0 0 24 24" fill="none" xmlns="http://www.w3.org/2000/svg">
<g id="trash-bold">
<path id="Union" fill-rule="evenodd" clip-rule="evenodd" d="M16.2302 4.86C17.8502 4.95 19.4602 5.07 21.0702 5.23C21.4902 5.27 21.7902 5.64 21.7602 6.05C21.7202 6.44 21.3902 6.73 21.0102 6.73H20.9302C15.6302 6.2 10.3502 6 5.11016 6.52L3.07016 6.72C2.65016 6.76 2.29016 6.46 2.25016 6.05C2.21016 5.64 2.51016 5.27 2.93016 5.23L4.97016 5.03C5.90016 4.94 6.83016 4.88 7.76016 4.82L7.97016 3.54C8.13016 2.57 8.35016 1.25 10.6802 1.25H13.3002C15.6352 1.25 15.8592 2.62414 16.0092 3.54413L16.0102 3.55L16.2302 4.85V4.86ZM18.3202 7.75C18.6602 7.75 18.9902 7.89 19.2302 8.14C19.4602 8.39 19.5902 8.73 19.5702 9.09L18.9502 19.34C18.8402 20.87 18.7002 22.76 15.2102 22.76H8.79018C5.30018 22.76 5.16018 20.86 5.05018 19.34L4.43018 9.08C4.41018 8.73 4.54018 8.39 4.77018 8.14C5.00018 7.89 5.34018 7.75 5.68018 7.75H18.3202ZM10.3302 17.75H13.6602C14.0702 17.75 14.4102 17.41 14.4102 17C14.4102 16.59 14.0702 16.25 13.6602 16.25H10.3302C9.92018 16.25 9.58018 16.59 9.58018 17C9.58018 17.41 9.92018 17.75 10.3302 17.75ZM9.50018 13.75H14.5002C14.9102 13.75 15.2502 13.41 15.2502 13C15.2502 12.59 14.9102 12.25 14.5002 12.25H9.50018C9.09018 12.25 8.75018 12.59 8.75018 13C8.75018 13.41 9.09018 13.75 9.50018 13.75Z" fill="#1B1C1D"/>
</g>
</svg>
