<svg width="24" height="24" viewBox="0 0 24 24" fill="none" xmlns="http://www.w3.org/2000/svg">
<path fill-rule="evenodd" clip-rule="evenodd" d="M16.2299 4.86C17.8499 4.95 19.4599 5.07 21.0699 5.23C21.4899 5.27 21.7899 5.64 21.7599 6.05C21.7199 6.44 21.3899 6.73 21.0099 6.73H20.9299C15.6299 6.2 10.3499 6 5.10991 6.52L3.06991 6.72C2.64991 6.76 2.28991 6.46 2.24991 6.05C2.20991 5.64 2.50991 5.27 2.92991 5.23L4.96991 5.03C5.89991 4.94 6.82991 4.88 7.75991 4.82L7.96991 3.54C8.12991 2.57 8.34991 1.25 10.6799 1.25H13.2999C15.6349 1.25 15.859 2.62414 16.009 3.54413L16.0099 3.55L16.2299 4.85V4.86ZM18.3199 7.75C18.6599 7.75 18.9899 7.89 19.2299 8.14C19.4599 8.39 19.5899 8.73 19.5699 9.09L18.9499 19.34C18.8399 20.87 18.6999 22.76 15.2099 22.76H8.78993C5.29993 22.76 5.15993 20.86 5.04993 19.34L4.42993 9.08C4.40993 8.73 4.53993 8.39 4.76993 8.14C4.99993 7.89 5.33993 7.75 5.67993 7.75H18.3199ZM10.3299 17.75H13.6599C14.0699 17.75 14.4099 17.41 14.4099 17C14.4099 16.59 14.0699 16.25 13.6599 16.25H10.3299C9.91993 16.25 9.57993 16.59 9.57993 17C9.57993 17.41 9.91993 17.75 10.3299 17.75ZM9.49993 13.75H14.4999C14.9099 13.75 15.2499 13.41 15.2499 13C15.2499 12.59 14.9099 12.25 14.4999 12.25H9.49993C9.08993 12.25 8.74993 12.59 8.74993 13C8.74993 13.41 9.08993 13.75 9.49993 13.75Z" fill="white"/>
</svg>
