<svg width="20" height="24" viewBox="0 0 20 24" fill="none" xmlns="http://www.w3.org/2000/svg">
<path d="M19.4275 7.90373C19.1585 7.26011 18.5149 6.80684 17.7765 6.80401C16.6207 6.79977 15.5559 6.40445 14.7068 5.7434C13.5228 4.82131 12.7595 3.38281 12.7595 1.76904C12.7595 1.52968 12.7114 1.30163 12.6252 1.09337C12.3915 0.529849 11.8751 0.113331 11.2527 0.0214519C11.0967 -0.00304914 10.9341 -0.00728971 10.7673 0.0124996C10.6797 0.0228655 10.5949 0.0398278 10.512 0.0629153C9.74913 0.273059 9.21058 0.988302 9.21058 1.80108V17.8059C9.21058 19.2482 8.06233 20.4502 6.62053 20.4662C6.12109 20.4718 5.65321 20.3361 5.25365 20.0977C4.48705 19.6402 3.97253 18.8029 3.97253 17.8469C3.97253 16.7001 4.73819 15.6687 5.83461 15.3384C6.76895 15.0571 7.29855 14.0714 7.01679 13.1371C6.99983 13.0801 6.98004 13.0249 6.95742 12.9712C6.61535 12.1415 5.69279 11.6906 4.81499 11.9549C3.57486 12.3285 2.461 13.1055 1.67791 14.143C0.867018 15.2173 0.438721 16.4984 0.438721 17.8469C0.438721 19.7656 1.3217 21.482 2.70224 22.611C3.76286 23.4784 5.11749 24 6.59132 24C8.07976 24 9.44617 23.4685 10.5115 22.5855C11.8685 21.4608 12.7364 19.766 12.7439 17.8714C12.7439 17.8672 12.7444 17.8634 12.7444 17.8592V8.6873C14.1504 9.71634 15.8796 10.3284 17.7487 10.3378C18.6661 10.3425 19.4605 9.66027 19.5524 8.74714C19.5825 8.44653 19.5345 8.16052 19.4275 7.90373Z" fill="#70717A"/>
</svg>
