<svg width="28" height="28" viewBox="0 0 28 28" fill="none" xmlns="http://www.w3.org/2000/svg">
<g transform="rotate(45)" transform-origin="14 14">
<path d="M14 2.33398C7.57165 2.33398 2.33331 7.57232 2.33331 14.0007C2.33331 20.429 7.57165 25.6673 14 25.6673C20.4283 25.6673 25.6666 20.429 25.6666 14.0007C25.6666 7.57232 20.4283 2.33398 14 2.33398ZM18.6666 14.8757H14.875V18.6673C14.875 19.1457 14.4783 19.5423 14 19.5423C13.5216 19.5423 13.125 19.1457 13.125 18.6673V14.8757H9.33331C8.85498 14.8757 8.45831 14.479 8.45831 14.0007C8.45831 13.5223 8.85498 13.1257 9.33331 13.1257H13.125V9.33398C13.125 8.85565 13.5216 8.45898 14 8.45898C14.4783 8.45898 14.875 8.85565 14.875 9.33398V13.1257H18.6666C19.145 13.1257 19.5416 13.5223 19.5416 14.0007C19.5416 14.479 19.145 14.8757 18.6666 14.8757Z" fill="#E04748"/>
</g>
</svg>
