<svg width="20" height="20" viewBox="0 0 20 20" fill="none" xmlns="http://www.w3.org/2000/svg">
<g id="Icon">
<path id="Subtract" fill-rule="evenodd" clip-rule="evenodd" d="M10.664 2.59018C10.2852 2.25379 9.71472 2.25379 9.33593 2.59018L8.30949 3.50176C8.10114 3.68678 7.82505 3.77649 7.54774 3.74926L6.18152 3.61512C5.67735 3.56561 5.21581 3.90094 5.1071 4.39573L4.81249 5.73654C4.7527 6.00869 4.58206 6.24355 4.34171 6.38452L3.15756 7.07904C2.72058 7.33533 2.54429 7.8779 2.74717 8.34209L3.29694 9.59999C3.40852 9.85532 3.40852 10.1456 3.29693 10.4009L2.74717 11.6588C2.54429 12.123 2.72058 12.6656 3.15756 12.9219L4.34171 13.6164C4.58206 13.7574 4.7527 13.9922 4.81249 14.2644L5.1071 15.6052C5.21581 16.1 5.67735 16.4353 6.18152 16.3858L7.54774 16.2517C7.82505 16.2244 8.10114 16.3142 8.30949 16.4992L9.33593 17.4108C9.71472 17.7471 10.2852 17.7471 10.664 17.4108L11.6904 16.4992C11.8988 16.3142 12.1749 16.2244 12.4522 16.2517L13.8184 16.3858C14.3226 16.4353 14.7841 16.1 14.8928 15.6052L15.1874 14.2644C15.2472 13.9922 15.4179 13.7574 15.6582 13.6164L16.8424 12.9219C17.2793 12.6656 17.4556 12.123 17.2528 11.6588L16.703 10.4009C16.5914 10.1456 16.5914 9.85532 16.703 9.59999L17.2528 8.34209C17.4556 7.8779 17.2793 7.33533 16.8424 7.07904L15.6582 6.38452C15.4179 6.24355 15.2472 6.00869 15.1874 5.73654L14.8928 4.39573C14.7841 3.90094 14.3226 3.56561 13.8184 3.61512L12.4522 3.74926C12.1749 3.77649 11.8988 3.68678 11.6904 3.50176L10.664 2.59018ZM13.7952 8.26739C14.0796 7.96625 14.0661 7.49157 13.7649 7.20716C13.4638 6.92275 12.9891 6.93632 12.7047 7.23745L9.01325 11.1461L7.30743 9.2507C7.03034 8.94282 6.55612 8.91786 6.24824 9.19495C5.94036 9.47205 5.9154 9.94626 6.19249 10.2541L8.44249 12.7541C8.58263 12.9098 8.78149 12.9999 8.99096 13.0024C9.20042 13.0049 9.40139 12.9197 9.54522 12.7674L13.7952 8.26739Z" fill="#46ACF7"/>
</g>
</svg>
