<svg width="24" height="24" viewBox="0 0 24 24" fill="none" xmlns="http://www.w3.org/2000/svg">
<path fill-rule="evenodd" clip-rule="evenodd" d="M9.53001 2.53C9.08001 3.85 8.76001 5.22 8.51001 6.59C10.83 6.33 13.17 6.33 15.49 6.59C15.24 5.22 14.92 3.86 14.47 2.53C14.4562 2.47477 14.4519 2.42907 14.4473 2.37974L14.4473 2.37969L14.4473 2.37964L14.4473 2.3796C14.4452 2.35752 14.4431 2.33471 14.44 2.31C13.66 2.12 12.84 2 12 2C11.15 2 10.34 2.12 9.55001 2.31C9.54603 2.34181 9.54522 2.37047 9.54442 2.39847C9.54322 2.44088 9.54206 2.48181 9.53001 2.53ZM17.2 6.79998C18.49 7.01998 19.76 7.32998 21.02 7.70998C20.03 5.63998 18.36 3.96998 16.29 2.97998C16.68 4.22998 16.99 5.50998 17.2 6.79998ZM7.60002 20.9201L7.6 20.9201L7.59997 20.9201C7.58248 20.9251 7.56499 20.9301 7.55 20.9301C5.61 19.9701 4.03 18.3801 3.06 16.4401C3.06 16.4251 3.065 16.4076 3.07 16.3901C3.075 16.3726 3.08 16.3551 3.08 16.3401C4.3 16.7001 5.56 16.9701 6.81 17.1801C7.03 18.4401 7.29 19.6901 7.65 20.9101C7.635 20.9101 7.61751 20.9151 7.60002 20.9201ZM20.94 16.4501C19.95 18.4401 18.3 20.0501 16.29 21.0201C16.67 19.7501 16.99 18.4701 17.2 17.1801C18.46 16.9701 19.7 16.7001 20.92 16.3401C20.914 16.3642 20.9225 16.3882 20.9302 16.4101C20.9352 16.4246 20.94 16.4381 20.94 16.4501ZM7.65001 3.09006C7.29001 4.31006 7.03001 5.55006 6.82001 6.81006C5.53001 7.01006 4.25001 7.33006 2.98001 7.71006C3.95001 5.70006 5.56001 4.05006 7.55001 3.06006C7.56501 3.06006 7.58251 3.06756 7.60001 3.07506C7.61751 3.08256 7.63501 3.09006 7.65001 3.09006ZM6.59 15.49C5.21 15.24 3.85 14.92 2.53 14.47C2.48182 14.458 2.44089 14.4568 2.39848 14.4556H2.39847H2.39846H2.39845H2.39845C2.37045 14.4548 2.34181 14.454 2.31 14.45C2.12 13.66 2 12.85 2 12C2 11.16 2.12 10.34 2.31 9.56001C2.33476 9.55691 2.35761 9.55478 2.37972 9.55271H2.37973L2.37974 9.55271C2.42907 9.54809 2.47477 9.54382 2.53 9.53001C3.86 9.09001 5.21 8.76001 6.59 8.51001C6.34 10.83 6.34 13.17 6.59 15.49ZM21.69 14.45C21.88 13.66 22 12.85 22 12C22 11.16 21.88 10.35 21.69 9.56001C21.61 9.56001 21.55 9.55001 21.47 9.53001C20.15 9.08001 18.78 8.76001 17.41 8.51001C17.67 10.83 17.67 13.17 17.41 15.49C18.78 15.24 20.14 14.91 21.47 14.47C21.5182 14.458 21.5591 14.4568 21.6015 14.4556C21.6295 14.4548 21.6582 14.454 21.69 14.45ZM15.49 17.4099C15.24 18.7899 14.92 20.1499 14.47 21.4699C14.4562 21.5251 14.4519 21.5708 14.4473 21.6202L14.4473 21.6202C14.4452 21.6423 14.4431 21.6652 14.44 21.6899C13.66 21.8799 12.84 21.9999 12 21.9999C11.15 21.9999 10.34 21.8799 9.55001 21.6899C9.54603 21.6581 9.54522 21.6294 9.54442 21.6014C9.54322 21.559 9.54206 21.5181 9.53001 21.4699C9.09001 20.1399 8.76001 18.7899 8.51001 17.4099C9.67001 17.5399 10.83 17.6299 12 17.6299C13.17 17.6299 14.34 17.5399 15.49 17.4099ZM8.23667 15.7633C10.7378 16.0789 13.2622 16.0789 15.7633 15.7633C16.0789 13.2622 16.0789 10.7378 15.7633 8.23667C13.2622 7.92111 10.7378 7.92111 8.23667 8.23667C7.92111 10.7378 7.92111 13.2622 8.23667 15.7633Z" fill="#898993"/>
</svg>
