<svg width="650" height="418" viewBox="0 0 650 418" fill="none" xmlns="http://www.w3.org/2000/svg">
<path d="M50.3009 148.122L50.3009 43.9232C50.2859 42.2307 49.6015 40.613 48.3973 39.4238L10.8447 1.87122C9.95722 0.978698 8.82435 0.370285 7.59015 0.123352C6.35596 -0.123581 5.07621 0.00213601 3.91364 0.484482C2.75107 0.966827 1.75822 1.784 1.06134 2.83212C0.364455 3.88025 -0.00497015 5.11194 4.16381e-05 6.37059L5.00472e-05 198.748C5.01208e-05 200.431 0.66857 202.045 1.85854 203.235C3.04851 204.425 4.66246 205.093 6.34534 205.093L198.723 205.093C199.982 205.098 201.213 204.729 202.261 204.032C203.31 203.335 204.127 202.342 204.609 201.18C205.091 200.017 205.217 198.738 204.97 197.503C204.723 196.269 204.115 195.136 203.222 194.249L155.344 156.371C154.752 155.782 154.05 155.316 153.278 155C152.506 154.683 151.679 154.521 150.845 154.525L56.6462 154.525C54.958 154.51 53.3442 153.828 52.1558 152.629C50.9675 151.43 50.3008 149.81 50.3009 148.122Z" fill="#4B1FFF"/>
<path d="M198.098 279.878L198.098 374.077C198.083 375.769 197.399 377.387 196.195 378.576L158.642 416.129C157.755 417.021 156.622 417.63 155.388 417.877C154.153 418.124 152.874 417.998 151.711 417.516C150.549 417.033 149.556 416.216 148.859 415.168C148.162 414.12 147.793 412.888 147.798 411.629L148.069 240C175.84 267.748 198.098 260.748 198.098 279.878Z" fill="#4B1FFF"/>
<rect x="148.069" y="220" width="50" height="97" rx="10" fill="#4B1FFF"/>
<path d="M494.344 148.122L494.344 43.9232C494.33 42.2307 493.645 40.613 492.441 39.4238L454.888 1.87122C454.001 0.978698 452.868 0.370285 451.634 0.123352C450.4 -0.123581 449.12 0.00213601 447.957 0.484482C446.795 0.966827 445.802 1.784 445.105 2.83212C444.408 3.88025 444.039 5.11194 444.044 6.37059L444.044 198.748C444.044 200.431 444.712 202.045 445.902 203.235C447.092 204.425 448.706 205.093 450.389 205.093L642.766 205.093C644.025 205.098 645.257 204.729 646.305 204.032C647.353 203.335 648.17 202.342 648.653 201.18C649.135 200.017 649.261 198.738 649.014 197.503C648.767 196.269 648.158 195.136 647.266 194.249L599.388 156.371C598.796 155.782 598.094 155.316 597.322 155C596.55 154.683 595.723 154.521 594.888 154.525L500.69 154.525C499.002 154.51 497.388 153.828 496.199 152.629C495.011 151.43 494.344 149.81 494.344 148.122Z" fill="#4B1FFF"/>
<path d="M642.098 272.878L642.098 367.077C642.083 368.769 641.399 370.387 640.195 371.576L602.642 409.129C601.755 410.021 600.622 410.63 599.388 410.877C598.153 411.124 596.874 410.998 595.711 410.516C594.549 410.033 593.556 409.216 592.859 408.168C592.162 407.12 591.793 405.888 591.798 404.629L592.069 233C619.84 260.748 642.098 253.748 642.098 272.878Z" fill="#4B1FFF"/>
<rect x="592.069" y="213" width="50" height="97" rx="10" fill="#4B1FFF"/>
<path fill-rule="evenodd" clip-rule="evenodd" d="M221.371 44.6119C221.371 43.1474 221.953 41.7428 222.988 40.7072L260.766 2.92893C262.642 1.05357 265.185 -1.53124e-07 267.837 0L377.632 6.33906e-06H381.535C384.188 6.33906e-06 386.731 1.05358 388.606 2.92894L424.837 39.1599C426.713 41.0353 427.766 43.5788 427.766 46.231V50.134V367.866V369.637C427.766 372.289 426.713 374.832 424.837 376.708L386.474 415.071C384.599 416.946 382.055 418 379.403 418H377.632H271.505H270.206C267.554 418 265.01 416.946 263.135 415.071L222.498 374.434C221.776 373.712 221.371 372.734 221.371 371.713L221.371 367.866C221.371 367.866 221.371 367.866 221.371 367.866C221.371 367.866 221.371 367.866 221.371 367.866V50.134C221.371 50.134 221.371 50.134 221.371 50.134C221.371 50.134 221.371 50.1339 221.371 50.1339V44.6119ZM281.505 50.134C275.982 50.134 271.505 54.6111 271.505 60.134V357.866C271.505 363.389 275.982 367.866 281.505 367.866H367.632C373.155 367.866 377.632 363.389 377.632 357.866V60.134C377.632 54.6111 373.155 50.134 367.632 50.134L281.505 50.134Z" fill="#111111"/>
</svg>
