<svg width="24" height="24" viewBox="0 0 24 24" fill="none" xmlns="http://www.w3.org/2000/svg">
<g id="dragging">
<g id="shape">
<path d="M9.5 10.5C8.67157 10.5 8 11.1716 8 12C8 12.8284 8.67157 13.5 9.5 13.5C10.3284 13.5 11 12.8284 11 12C11 11.1716 10.3284 10.5 9.5 10.5Z" fill="#696C71"/>
<path d="M15.5 10.5C14.6716 10.5 14 11.1716 14 12C14 12.8284 14.6716 13.5 15.5 13.5C16.3284 13.5 17 12.8284 17 12C17 11.1716 16.3284 10.5 15.5 10.5Z" fill="#696C71"/>
<path d="M9.5 17C8.67157 17 8 17.6716 8 18.5C8 19.3284 8.67157 20 9.5 20C10.3284 20 11 19.3284 11 18.5C11 17.6716 10.3284 17 9.5 17Z" fill="#696C71"/>
<path d="M15.5 17C14.6716 17 14 17.6716 14 18.5C14 19.3284 14.6716 20 15.5 20C16.3284 20 17 19.3284 17 18.5C17 17.6716 16.3284 17 15.5 17Z" fill="#696C71"/>
<path d="M9.5 4C8.67157 4 8 4.67157 8 5.5C8 6.32843 8.67157 7 9.5 7C10.3284 7 11 6.32843 11 5.5C11 4.67157 10.3284 4 9.5 4Z" fill="#696C71"/>
<path d="M15.5 4C14.6716 4 14 4.67157 14 5.5C14 6.32843 14.6716 7 15.5 7C16.3284 7 17 6.32843 17 5.5C17 4.67157 16.3284 4 15.5 4Z" fill="#696C71"/>
</g>
</g>
</svg>
