<svg width="24" height="24" viewBox="0 0 24 24" fill="none" xmlns="http://www.w3.org/2000/svg">
<g id="Icon">
<path id="shape" fill-rule="evenodd" clip-rule="evenodd" d="M4.73992 4.03003C4.01177 4.03003 3.41992 4.6166 3.41992 5.35003V7.17003C3.41992 7.58424 3.08414 7.92003 2.66992 7.92003C2.25571 7.92003 1.91992 7.58424 1.91992 7.17003V5.35003C1.91992 3.78346 3.18807 2.53003 4.73992 2.53003H19.2599C20.8265 2.53003 22.0799 3.79818 22.0799 5.35003V7.17003C22.0799 7.58424 21.7441 7.92003 21.3299 7.92003C20.9157 7.92003 20.5799 7.58424 20.5799 7.17003V5.35003C20.5799 4.62188 19.9933 4.03003 19.2599 4.03003H12.7457C12.7485 4.05634 12.7499 4.08306 12.7499 4.11011V19.97H15.9399C16.3541 19.97 16.6899 20.3058 16.6899 20.72C16.6899 21.1342 16.3541 21.47 15.9399 21.47H12.0143C12.0095 21.4701 12.0047 21.4701 11.9999 21.4701C11.9951 21.4701 11.9903 21.4701 11.9855 21.47H8.05991C7.64569 21.47 7.30991 21.1342 7.30991 20.72C7.30991 20.3058 7.64569 19.97 8.05991 19.97H11.2499V4.11011C11.2499 4.08306 11.2513 4.05634 11.2541 4.03003H4.73992Z" fill="#E2E2E3"/>
</g>
</svg>
