<svg width="24" height="24" viewBox="0 0 24 24" fill="none" xmlns="http://www.w3.org/2000/svg">
<g id="Icon">
<path id="shape" fill-rule="evenodd" clip-rule="evenodd" d="M5.68874 5.14157C5.88431 5.28254 6.0002 5.50892 6.0002 5.75001V8.50001H6.2502C6.66442 8.50001 7.0002 8.83579 7.0002 9.25001C7.0002 9.66422 6.66442 10 6.2502 10H5.2502H3.7502C3.33599 10 3.0002 9.66422 3.0002 9.25001C3.0002 8.83579 3.33599 8.50001 3.7502 8.50001H4.5002V6.79057L3.98737 6.96152C3.59442 7.0925 3.16968 6.88013 3.03869 6.48718C2.90771 6.09422 3.12008 5.66948 3.51303 5.53849L5.01303 5.03849C5.24174 4.96226 5.49316 5.00061 5.68874 5.14157ZM3.00021 15.5C3.00021 14.6716 3.67179 14 4.50021 14H5.50021C6.32864 14 7.00021 14.6716 7.00021 15.5V15.666C7.00021 16.0912 6.81973 16.4965 6.50366 16.7809L5.70468 17.5H6.25021C6.66443 17.5 7.00021 17.8358 7.00021 18.25C7.00021 18.6642 6.66443 19 6.25021 19H3.75021C3.43967 19 3.16125 18.8086 3.05 18.5187C2.93874 18.2288 3.01767 17.9003 3.24849 17.6925L5.50021 15.666V15.5H4.50021C4.50021 15.9142 4.16443 16.25 3.75021 16.25C3.336 16.25 3.00021 15.9142 3.00021 15.5ZM9.75021 6.25C9.336 6.25 9.00021 6.58579 9.00021 7C9.00021 7.41421 9.336 7.75 9.75021 7.75H21.0002C21.4144 7.75 21.7502 7.41421 21.7502 7C21.7502 6.58579 21.4144 6.25 21.0002 6.25H9.75021ZM9.00021 12C9.00021 11.5858 9.336 11.25 9.75021 11.25H21.0002C21.4144 11.25 21.7502 11.5858 21.7502 12C21.7502 12.4142 21.4144 12.75 21.0002 12.75H9.75021C9.336 12.75 9.00021 12.4142 9.00021 12ZM9.75021 16.25C9.336 16.25 9.00021 16.5858 9.00021 17C9.00021 17.4142 9.336 17.75 9.75021 17.75H21.0002C21.4144 17.75 21.7502 17.4142 21.7502 17C21.7502 16.5858 21.4144 16.25 21.0002 16.25H9.75021Z" fill="#E2E2E3"/>
</g>
</svg>
