<svg width="24" height="24" viewBox="0 0 24 24" fill="none" xmlns="http://www.w3.org/2000/svg">
<g id="Icon">
<path id="shape" fill-rule="evenodd" clip-rule="evenodd" d="M3 7C3 7.55 3.44 8 4 8C4.56 8 5 7.55 5 7C5 6.45 4.55 6 4 6C3.45 6 3 6.45 3 7ZM7.75 6.25C7.33579 6.25 7 6.58579 7 7C7 7.41421 7.33579 7.75 7.75 7.75H21C21.4142 7.75 21.75 7.41421 21.75 7C21.75 6.58579 21.4142 6.25 21 6.25H7.75ZM7.75 11.25C7.33579 11.25 7 11.5858 7 12C7 12.4142 7.33579 12.75 7.75 12.75H21C21.4142 12.75 21.75 12.4142 21.75 12C21.75 11.5858 21.4142 11.25 21 11.25H7.75ZM7 17C7 16.5858 7.33579 16.25 7.75 16.25H21C21.4142 16.25 21.75 16.5858 21.75 17C21.75 17.4142 21.4142 17.75 21 17.75H7.75C7.33579 17.75 7 17.4142 7 17ZM4 13C3.44 13 3 12.55 3 12C3 11.45 3.45 11 4 11C4.55 11 5 11.45 5 12C5 12.55 4.56 13 4 13ZM3 17C3 17.55 3.44 18 4 18C4.56 18 5 17.55 5 17C5 16.45 4.55 16 4 16C3.45 16 3 16.45 3 17Z" fill="#E2E2E3"/>
</g>
</svg>
