<svg width="24" height="24" viewBox="0 0 24 24" fill="none" xmlns="http://www.w3.org/2000/svg">
<g id="Icon">
<path id="shape" fill-rule="evenodd" clip-rule="evenodd" d="M7.81 2H16.19C19.83 2 22 4.17 22 7.81V13.9V16.19C22 19.83 19.83 22 16.19 22H7.81C5.26 22 3.42 20.93 2.56 19.03C2.19 18.23 2 17.28 2 16.19V7.81C2 4.17 4.17 2 7.81 2ZM17.55 12.5C18.33 11.83 19.59 11.83 20.37 12.5L20.5 12.61V7.81C20.5 4.99 19.01 3.5 16.19 3.5H7.81C4.99 3.5 3.5 4.99 3.5 7.81V16.19C3.5 16.95 3.63 17.6 3.85 18.16L7.59 15.65C8.39 15.11 9.52 15.17 10.23 15.79L10.57 16.07C11.35 16.74 12.61 16.74 13.39 16.07L17.55 12.5ZM11.38 8.00012C11.38 9.31456 10.3144 10.3801 9 10.3801C7.68556 10.3801 6.62 9.31456 6.62 8.00012C6.62 6.68568 7.68556 5.62012 9 5.62012C10.3144 5.62012 11.38 6.68568 11.38 8.00012Z" fill="#E2E2E3"/>
</g>
</svg>
