<svg width="24" height="24" viewBox="0 0 24 24" fill="none" xmlns="http://www.w3.org/2000/svg">
<g id="Icon">
<path id="shape" fill-rule="evenodd" clip-rule="evenodd" d="M3.4 11.63H8.09C9.85 11.63 11.18 12.96 11.18 14.71V17.71C11.18 19.47 9.85 20.8 8.09 20.8H5.09C3.39 20.8 2 19.42 2 17.71V12.32C2 6.50997 3.18 5.28997 6.56 3.28997C6.89 3.08997 7.32 3.19997 7.51 3.52997C7.71 3.86997 7.6 4.28997 7.27 4.48997C4.4 6.18997 3.48 6.95997 3.4 11.63ZM14.22 11.63H18.91C20.67 11.63 22 12.96 21.99 14.72V17.72C21.99 19.48 20.66 20.81 18.9 20.81H15.9C14.2 20.81 12.81 19.43 12.81 17.72V12.33C12.81 6.50997 13.99 5.28997 17.37 3.28997C17.71 3.08997 18.13 3.19997 18.33 3.52997C18.53 3.86997 18.42 4.28997 18.09 4.48997C15.22 6.18997 14.3 6.95997 14.22 11.63Z" fill="#E2E2E3"/>
</g>
</svg>
