<svg width="24" height="24" viewBox="0 0 24 24" fill="none" xmlns="http://www.w3.org/2000/svg">
<g id="Icon">
<path id="shape" fill-rule="evenodd" clip-rule="evenodd" d="M9 1.25C6.42603 1.25 4.42914 1.7602 3.09467 3.09467C1.7602 4.42914 1.25 6.42603 1.25 9V15C1.25 17.574 1.7602 19.5709 3.09467 20.9053C4.42914 22.2398 6.42603 22.75 9 22.75H15C17.574 22.75 19.5709 22.2398 20.9053 20.9053C21.8242 19.9864 22.3523 18.7535 22.5921 17.2343C22.623 17.1521 22.64 17.063 22.64 16.97C22.64 16.951 22.6393 16.9322 22.6379 16.9136C22.7146 16.3169 22.75 15.6785 22.75 15V9C22.75 8.31182 22.7135 7.66489 22.6346 7.06085C22.6382 7.03106 22.64 7.00073 22.64 6.96997C22.64 6.86172 22.6171 6.75883 22.5758 6.66589C22.3289 5.19244 21.804 3.99335 20.9053 3.09467C19.5709 1.7602 17.574 1.25 15 1.25H9ZM21.203 16.22C21.2342 15.8418 21.25 15.4358 21.25 15V12.75H17.6401V16.22H21.203ZM17.6401 17.72V20.9844C18.608 20.7512 19.3221 20.3673 19.8447 19.8447C20.3528 19.3365 20.7298 18.6474 20.9647 17.72H17.6401ZM19.8447 4.15533C20.3418 4.65243 20.7134 5.32275 20.9492 6.21997H17.6401V3.01559C18.608 3.24884 19.3221 3.63273 19.8447 4.15533ZM21.1978 7.71997H17.6401V11.25H21.25V9C21.25 8.54105 21.2325 8.11513 21.1978 7.71997ZM3.05082 6.21997C3.28664 5.32275 3.65823 4.65243 4.15533 4.15533C4.63757 3.67309 5.28284 3.30896 6.14014 3.07232V6.21997H3.05082ZM2.80215 7.71997C2.76753 8.11513 2.75 8.54105 2.75 9V11.25H6.14014V7.71997H2.80215ZM2.75 12.75H6.14014V16.22H2.79704C2.7658 15.8418 2.75 15.4358 2.75 15V12.75ZM7.64014 21.1906V12.75H16.1401V21.2093C15.7848 21.2363 15.4053 21.25 15 21.25H9C8.50998 21.25 8.05761 21.23 7.64014 21.1906ZM16.1401 2.79071V11.25H7.64014V2.80942C8.05761 2.76998 8.50998 2.75 9 2.75H15C15.4053 2.75 15.7848 2.76367 16.1401 2.79071ZM3.03532 17.72C3.27021 18.6474 3.6472 19.3365 4.15533 19.8447C4.63757 20.3269 5.28284 20.691 6.14014 20.9277V17.72H3.03532Z" fill="#E2E2E3"/>
</g>
</svg>
