<svg width="24" height="24" viewBox="0 0 24 24" fill="none" xmlns="http://www.w3.org/2000/svg">
<g id="Icon">
<path id="shape" fill-rule="evenodd" clip-rule="evenodd" d="M12 3.42993C15.56 3.42993 18.94 5.51993 21.25 9.14993C22.25 10.7199 22.25 13.2799 21.25 14.8399C20.09 16.6599 18.67 18.0899 17.09 19.0699C15.51 20.0399 13.78 20.5599 12 20.5599C8.44 20.5599 5.06 18.4799 2.75 14.8399C1.75 13.2699 1.75 10.7199 2.75 9.14993C3.91 7.32993 5.33 5.89993 6.91 4.91993C8.49 3.94993 10.22 3.42993 12 3.42993ZM7.96 11.9999C7.96 14.2299 9.76 16.0399 12 16.0399C14.24 16.0399 16.04 14.2299 16.04 11.9999C16.04 9.76993 14.24 7.95993 12 7.95993C9.76 7.95993 7.96 9.76993 7.96 11.9999ZM9.14999 11.9999C9.14999 10.4199 10.43 9.13989 12 9.13989C13.57 9.13989 14.86 10.4299 14.86 11.9999C14.86 13.5699 13.57 14.8499 12 14.8499C10.43 14.8499 9.14999 13.5699 9.14999 11.9999Z" fill="#E3E3E3"/>
</g>
</svg>
