<svg width="24" height="24" viewBox="0 0 24 24" fill="none" xmlns="http://www.w3.org/2000/svg">
<path fill-rule="evenodd" clip-rule="evenodd" d="M20.6903 19.95C20.6903 21.76 19.4003 22.52 17.8203 21.64L12.9403 18.93C12.4303 18.64 11.5903 18.64 11.0703 18.93L6.19031 21.64C4.61031 22.51 3.32031 21.75 3.32031 19.95V5.86C3.32031 3.74 5.05031 2 7.18031 2H16.8203C18.9503 2 20.6803 3.74 20.6903 5.86V19.95ZM18.5485 20.3286L13.6738 17.6216C13.1379 17.3192 12.5308 17.2125 12.0091 17.2125C11.4838 17.2125 10.8775 17.3205 10.3414 17.619L10.3397 17.62L5.4668 20.326L5.46466 20.3272C5.1557 20.4969 4.98929 20.5049 4.92757 20.4983C4.89217 20.4474 4.82031 20.2989 4.82031 19.95V5.86C4.82031 4.5659 5.88127 3.5 7.18031 3.5H16.8203C18.117 3.5 19.1825 4.56441 19.1903 5.86405V19.95C19.1903 20.3008 19.119 20.452 19.083 20.5048C19.0195 20.5104 18.854 20.4987 18.5502 20.3295L18.5485 20.3286ZM4.89922 20.4922C4.89928 20.492 4.9019 20.4926 4.90692 20.4948C4.90167 20.4935 4.89916 20.4924 4.89922 20.4922ZM4.94029 20.5145C4.94501 20.5181 4.94699 20.5203 4.94679 20.5204C4.9466 20.5206 4.94424 20.5188 4.94029 20.5145ZM19.0629 20.5286C19.0627 20.5284 19.0646 20.5264 19.0691 20.5229C19.0653 20.527 19.063 20.5288 19.0629 20.5286ZM19.1055 20.5015C19.1109 20.4991 19.1138 20.4985 19.1139 20.4987C19.1139 20.499 19.1112 20.5002 19.1055 20.5015ZM12.0003 10.2801C13.0203 10.2801 14.0403 10.1001 15.0103 9.75005C15.4003 9.61005 15.6003 9.18005 15.4603 8.79005C15.3203 8.40005 14.8903 8.20005 14.5003 8.34005C12.8903 8.92005 11.1203 8.92005 9.51031 8.34005C9.12031 8.20005 8.69031 8.40005 8.54031 8.79005C8.40031 9.18005 8.60031 9.61005 8.99031 9.75005C9.96031 10.1001 10.9803 10.2801 12.0003 10.2801Z" fill="#E2E3E3"/>
</svg>
