<svg width="24" height="24" viewBox="0 0 24 24" fill="none" xmlns="http://www.w3.org/2000/svg">
<path fill-rule="evenodd" clip-rule="evenodd" d="M5 6C4.44772 6 4 6.44772 4 7C4 7.55228 4.44772 8 5 8H19C19.5523 8 20 7.55228 20 7C20 6.44772 19.5523 6 19 6H5ZM18 12C18 12.5523 17.5523 13 17 13H7C6.44771 13 6 12.5523 6 12C6 11.4477 6.44771 11 7 11H17C17.5523 11 18 11.4477 18 12ZM16 17C16 17.5523 15.5523 18 15 18H9C8.44772 18 8 17.5523 8 17C8 16.4477 8.44772 16 9 16H15C15.5523 16 16 16.4477 16 17Z" fill="#E2E2E3"/>
</svg>
