<svg width="24" height="24" viewBox="0 0 24 24" fill="none" xmlns="http://www.w3.org/2000/svg">
<g id="follow">
<path id="shape" d="M14.8565 3C16.8325 3 18.4243 4.61007 18.4243 6.56776C18.4243 8.50716 16.8874 10.0623 14.9846 10.1355C14.9114 10.1355 14.8016 10.1355 14.7101 10.1355C12.789 10.0623 11.2704 8.50716 11.2704 6.56776C11.2887 4.61007 12.8805 3 14.8565 3ZM19.888 19.7227C17.1252 21.5707 12.5878 21.5707 9.82505 19.7227C7.39165 18.1127 7.39165 15.4414 9.82505 13.8131C12.6061 11.9651 17.1435 11.9651 19.888 13.8131C22.3214 15.4414 22.3214 18.0944 19.888 19.7227Z" fill="#232628"/>
<path id="shape_2" fill-rule="evenodd" clip-rule="evenodd" d="M6.8333 7.75C6.8333 7.33579 6.49751 7 6.0833 7C5.66908 7 5.3333 7.33579 5.3333 7.75V9.33323H3.75C3.33579 9.33323 3 9.66902 3 10.0832C3 10.4974 3.33579 10.8332 3.75 10.8332H5.3333V12.4166C5.3333 12.8308 5.66908 13.1666 6.0833 13.1666C6.49751 13.1666 6.8333 12.8308 6.8333 12.4166V10.8332H8.41663C8.83085 10.8332 9.16663 10.4974 9.16663 10.0832C9.16663 9.66902 8.83085 9.33323 8.41663 9.33323H6.8333V7.75Z" fill="#232628"/>
</g>
</svg>
