<svg width="44" height="44" viewBox="0 0 44 44" fill="none" xmlns="http://www.w3.org/2000/svg">
<g clip-path="url(#clip0_2001_122449)">
<path fill-rule="evenodd" clip-rule="evenodd" d="M59.8249 22.1889V13.0889H73.8718V11.5641H58.1716V33.7651H59.8249V23.7137H72.439V22.1889H59.8249ZM83.8039 24.5676C83.8039 30.7887 87.5881 34.1555 92.9399 34.1555C98.3529 34.1555 102.076 30.7155 102.076 24.3968V11.5641H100.423V24.5554C100.423 29.9227 97.5201 32.6429 93.0011 32.6429C88.2862 32.6429 85.4572 29.6299 85.4572 24.3968V11.5641H83.8039V24.5676ZM121.242 33.8261V13.0889H128.994V11.5641H111.849V13.0889H119.625V33.8261H121.242ZM138.816 24.5676C138.816 30.7887 142.612 34.1555 147.964 34.1555C153.377 34.1555 157.1 30.7155 157.1 24.3968V11.5641H155.447V24.5554C155.447 29.9227 152.544 32.6429 148.025 32.6429C143.31 32.6429 140.481 29.6299 140.481 24.3968V11.5641H138.816V24.5676ZM177.417 24.5676L184.52 33.7651L186.566 33.7042L179.218 24.2138C182.965 23.7137 185.745 21.5912 185.745 17.8706C185.745 14.1623 182.585 11.5641 177.785 11.5641H168.416V33.7651H170.069V24.5676H177.417ZM177.736 13.0279C181.777 13.0279 184.129 14.9308 184.129 17.9072V17.9438C184.129 21.1398 181.312 23.0184 177.638 23.0184H170.118V13.0279H177.736ZM196.583 11.5641V33.7651H212.602V32.2403H198.237V23.3233H211.01V21.8107H198.237V13.0889H212.443V11.5641H196.583ZM34.2172 10.637H14.2184C13.86 10.637 13.516 10.778 13.2615 11.0293C13.0069 11.2806 12.8622 11.6218 12.859 11.9788V31.8988C12.8597 32.0753 12.8255 32.2501 12.7582 32.4134C12.691 32.5767 12.592 32.7251 12.4671 32.8503L2.30238 42.9749C2.11396 43.1637 1.87345 43.2923 1.61143 43.3445C1.3494 43.3968 1.0777 43.3702 0.830885 43.2682C0.584067 43.1662 0.37328 42.9934 0.225328 42.7717C0.0773772 42.5501 -0.00105333 42.2896 1.06841e-05 42.0234V1.34183C1.06841e-05 0.985961 0.14194 0.644663 0.394577 0.393022C0.647213 0.141382 0.989861 1.062e-05 1.34714 1.062e-05H42.1897C42.457 -0.00104809 42.7185 0.0770733 42.941 0.224441C43.1635 0.371809 43.337 0.581766 43.4394 0.827611C43.5418 1.07346 43.5685 1.34408 43.5161 1.60507C43.4636 1.86607 43.3345 2.10563 43.145 2.29331L35.1724 10.2345C34.9199 10.4891 34.5765 10.6338 34.2172 10.637ZM224.335 31.0692V33.7651H226.429V31.0692H224.335ZM237.451 33.7651H247.126C251.939 33.7651 255.123 31.423 255.123 27.7025V27.6415C255.123 24.5675 252.771 23.0427 250.089 22.3474C251.201 21.9829 252.168 21.2762 252.85 20.3291C253.533 19.3819 253.895 18.2434 253.886 17.0777V17.0167C253.886 13.6865 250.983 11.564 246.648 11.564H237.451V33.7651ZM246.624 13.0888C250.187 13.0888 252.196 14.7356 252.196 17.1752L252.184 17.2362C252.184 20.1882 249.795 21.8106 246.452 21.8106H239.104V13.0888H246.624ZM246.636 23.3232C251.032 23.3232 253.42 24.909 253.42 27.6415V27.7025C253.42 30.4959 251.008 32.2403 247.187 32.2403H239.092V23.3232H246.636ZM274.448 33.7651V24.9456L284 11.564H282.029L273.652 23.4818L265.312 11.564H263.242L272.795 24.9822V33.7651H274.448Z" fill="white"/>
<path d="M34.5975 18.4805H24.2491C24.0486 18.4805 23.8502 18.52 23.6651 18.5968C23.4801 18.6735 23.3121 18.7861 23.171 18.9278C23.0298 19.0696 22.9182 19.2377 22.8426 19.4227C22.767 19.6076 22.7289 19.8056 22.7305 20.0053V30.3007C22.7324 30.6009 22.8232 30.8939 22.9915 31.1429C23.1598 31.3919 23.3982 31.5859 23.6768 31.7005C23.9553 31.8152 24.2617 31.8454 24.5574 31.7873C24.8531 31.7292 25.125 31.5855 25.3391 31.3742L35.6752 21.0787C35.8874 20.8655 36.0317 20.5947 36.09 20.3001C36.1483 20.0056 36.118 19.7005 36.0029 19.423C35.8878 19.1455 35.6931 18.9081 35.4431 18.7404C35.1931 18.5728 34.8989 18.4823 34.5975 18.4805Z" fill="#4B1FFF"/>
</g>
<defs>
<clipPath id="clip0_2001_122449">
<rect width="44" height="44" fill="white"/>
</clipPath>
</defs>
</svg>
