<svg width="24" height="24" viewBox="0 0 24 24" fill="none" xmlns="http://www.w3.org/2000/svg">
<path fill-rule="evenodd" clip-rule="evenodd" d="M5.46047 5.45994C5.75332 5.167 5.75325 4.69213 5.46031 4.39928C5.16737 4.10643 4.6925 4.1065 4.39965 4.39944C2.38434 6.41536 1.2522 9.14917 1.2522 11.9997C1.2522 14.8502 2.38434 17.584 4.39965 19.5999C4.6925 19.8929 5.16737 19.8929 5.46031 19.6001C5.75325 19.3072 5.75332 18.8324 5.46047 18.5394C3.72636 16.8048 2.7522 14.4525 2.7522 11.9997C2.7522 9.54692 3.72636 7.19457 5.46047 5.45994ZM19.6005 4.39944C19.3076 4.1065 18.8327 4.10643 18.5398 4.39928C18.2469 4.69213 18.2468 5.167 18.5396 5.45994C20.2738 7.19457 21.2479 9.54692 21.2479 11.9997C21.2479 14.4525 20.2738 16.8048 18.5396 18.5394C18.2468 18.8324 18.2469 19.3072 18.5398 19.6001C18.8327 19.8929 19.3076 19.8929 19.6005 19.5999C21.6158 17.584 22.7479 14.8502 22.7479 11.9997C22.7479 9.14917 21.6158 6.41536 19.6005 4.39944ZM8.2901 8.28031C8.58315 7.98758 8.58342 7.51271 8.29069 7.21965C7.99796 6.9266 7.52308 6.92633 7.23003 7.21906C6.60244 7.84596 6.10456 8.5904 5.76487 9.40984C5.42519 10.2293 5.25034 11.1076 5.25034 11.9947C5.25034 12.8817 5.42519 13.7601 5.76487 14.5795C6.10456 15.399 6.60244 16.1434 7.23003 16.7703C7.52308 17.063 7.99796 17.0628 8.29069 16.7697C8.58342 16.4767 8.58315 16.0018 8.2901 15.7091C7.80197 15.2215 7.41474 14.6425 7.15053 14.0051C6.88633 13.3678 6.75034 12.6846 6.75034 11.9947C6.75034 11.3048 6.88633 10.6216 7.15053 9.98425C7.41474 9.34691 7.80197 8.7679 8.2901 8.28031ZM16.7701 7.22906C16.477 6.93633 16.0022 6.9366 15.7094 7.22965C15.4167 7.52271 15.417 7.99758 15.71 8.29031C16.1982 8.7779 16.5854 9.35691 16.8496 9.99425C17.1138 10.6316 17.2498 11.3148 17.2498 12.0047C17.2498 12.6946 17.1138 13.3778 16.8496 14.0151C16.5854 14.6525 16.1982 15.2315 15.71 15.7191C15.417 16.0118 15.4167 16.4867 15.7094 16.7797C16.0022 17.0728 16.477 17.073 16.7701 16.7803C17.3977 16.1534 17.8956 15.409 18.2353 14.5895C18.5749 13.7701 18.7498 12.8917 18.7498 12.0047C18.7498 11.1176 18.5749 10.2393 18.2353 9.41984C17.8956 8.6004 17.3977 7.85596 16.7701 7.22906ZM10.7501 11.9998C10.7501 11.3094 11.3097 10.7498 12.0001 10.7498C12.6904 10.7498 13.2501 11.3094 13.2501 11.9998C13.2501 12.6901 12.6904 13.2498 12.0001 13.2498C11.3097 13.2498 10.7501 12.6901 10.7501 11.9998ZM12.0001 9.24976C10.4813 9.24976 9.25006 10.481 9.25006 11.9998C9.25006 13.5185 10.4813 14.7498 12.0001 14.7498C13.5188 14.7498 14.7501 13.5185 14.7501 11.9998C14.7501 10.481 13.5188 9.24976 12.0001 9.24976Z" fill="#E2E2E3"/>
</svg>
