<svg width="24" height="24" viewBox="0 0 24 24" fill="none" xmlns="http://www.w3.org/2000/svg">
<g clip-path="url(#clip0_601_169763)">
<path d="M14.8565 3C16.8325 3 18.4243 4.61007 18.4243 6.56776C18.4243 8.50716 16.8874 10.0623 14.9846 10.1355C14.9114 10.1355 14.8016 10.1355 14.7101 10.1355C12.789 10.0623 11.2704 8.50716 11.2704 6.56776C11.2887 4.61007 12.8805 3 14.8565 3ZM19.888 19.7227C17.1252 21.5707 12.5878 21.5707 9.82505 19.7227C7.39165 18.1127 7.39165 15.4414 9.82505 13.8131C12.6061 11.9651 17.1435 11.9651 19.888 13.8131C22.3214 15.4414 22.3214 18.0944 19.888 19.7227Z" fill="#232628"/>
<path fill-rule="evenodd" clip-rule="evenodd" d="M1.31194 5.25141C1.01904 4.95852 0.544171 4.95851 0.251277 5.25141C-0.041616 5.5443 -0.0416159 6.01918 0.251277 6.31207L2.4439 8.50469L0.253279 10.6953C-0.0396138 10.9882 -0.0396138 11.4631 0.253279 11.756C0.546173 12.0489 1.02105 12.0489 1.31394 11.756L3.50456 9.56535L5.6975 11.7583C5.99039 12.0512 6.46527 12.0512 6.75816 11.7583C7.05105 11.4654 7.05105 10.9905 6.75816 10.6976L4.56522 8.50469L6.75598 6.31393C7.04887 6.02104 7.04887 5.54616 6.75598 5.25327C6.46308 4.96037 5.98821 4.96038 5.69532 5.25327L3.50456 7.44403L1.31194 5.25141Z" fill="#232628"/>
</g>
<defs>
<clipPath id="clip0_601_169763">
<rect width="24" height="24" fill="white"/>
</clipPath>
</defs>
</svg>
